<?xml version="1.0" encoding="utf-8"?>
<!-- Generator: Adobe Illustrator 22.1.0, SVG Export Plug-In . SVG Version: 6.00 Build 0)  -->
<svg version="1.1" id="Layer_1" xmlns="http://www.w3.org/2000/svg" xmlns:xlink="http://www.w3.org/1999/xlink" x="0px" y="0px"
	 viewBox="0 0 60 34" style="enable-background:new 0 0 60 34;" xml:space="preserve">
<style type="text/css">
	.st0{fill:#AA988F;}
	.st1{fill:#A1938D;}
	.st2{fill:#232322;}
	.st3{fill:#484848;}
	.st4{fill:#FBD870;}
	.st5{fill:#B94F16;}
	.st6{fill:#F67D46;}
	.st7{fill:#B52E0D;}
	.st8{fill:#030301;}
	.st9{fill:#030302;}
	.st10{fill:#030201;}
	.st11{fill:#16130A;}
	.st12{fill:#1B170C;}
	.st13{fill:#CB742F;}
	.st14{fill:#C9702B;}
	.st15{fill:#C9702C;}
	.st16{fill:#CC7730;}
	.st17{fill:#F4C966;}
	.st18{fill:#F5CD68;}
	.st19{fill:#C86E2A;}
	.st20{fill:#26130B;}
	.st21{fill:#32190E;}
	.st22{fill:#D2D2D2;}
	.st23{fill:#EBEBEB;}
	.st24{fill:#CACACA;}
</style>
<g>
	<g>
		<path class="st0" d="M58.8,10.1c0.1,0,0.1,0,0.2,0c0,0.4,0,0.9,0,1.3c-0.1,0-0.1,0-0.2,0C58.5,11,58.5,10.5,58.8,10.1z"/>
		<path class="st1" d="M0.6,10.1c0.1,0,0.1,0,0.2,0c0.4,0.4,0.4,0.9,0,1.3c-0.1,0-0.1,0-0.2,0C0.6,11,0.6,10.5,0.6,10.1z"/>
		<path d="M0.7,11.4c0-0.4,0-0.9,0-1.3c1-2.9,3.2-4.3,5.9-5.2c0.8-0.2,1.1-0.5,0.5-1.2c0.4,0.1,0.4,0.1,1.1,0.6c0,0,0-0.1,0-0.1
			c0.2-0.3-0.4-0.8,0.1-1c0.4-0.1,0.5,0.5,0.6,0.8c0.2,0.4,0.5,0.2,0.8,0.2c2.5-0.2,5.1-0.1,7.4,1c1.4,0.7,2.2,0.4,3.2-0.6
			c0.6-0.6,0.8-1,0.3-1.6c-0.1-0.1-0.1-0.3,0-0.4c0.1-0.1,0.2-0.1,0.3,0c0.3,0.2,0.4,0.6,0.8,0.7c0.2-0.3,0.6-0.3,0.9-0.4
			c1.6-0.9,3.3-1.5,5-1.9c0.5-0.2,1,0,1.5-0.1c0.1,0,0.2,0,0.3,0c0.8,0.2,1.7-0.1,2.5,0.1c3.4,0.6,6.3,2,8.7,4.6
			c0.4,0.4,0.6,0.1,1,0c4.3-1.9,8.7-2.1,13-0.2c2,0.9,3.6,2.3,4.3,4.6c0,0.4,0,0.9,0,1.3c-0.4,1.3-1.5,2-2.6,2.6
			c-2.1,1-4.2,1.6-6.4,2.1c-1.4,0.3-2.7,0.6-4.1,0.9c-0.4,0.1-0.5,0.2-0.3,0.6c1.1,2.5,0.6,4.9-0.7,7.2c-2.7,4.7-7.1,6.8-12.2,7.6
			c-4.7,0.7-9.1-0.3-13.1-2.9c-2.5-1.6-4.1-3.8-5.2-6.5c-0.7-1.7-0.7-3.5,0-5.3c0.2-0.6,0.1-0.7-0.4-0.8c-3.2-0.7-6.5-1.3-9.6-2.6
			C2.7,13.8,1.3,13,0.7,11.4z"/>
		<path class="st2" d="M22.5,3c-0.2,0.3-0.5,0.4-0.9,0.4c0-0.5-0.4-1-0.1-1.6C22.2,1.9,22,2.8,22.5,3z"/>
		<path class="st3" d="M20.8,2.7c-0.3,0-0.3,0.2-0.3,0.4c-0.2-0.2-0.3-0.4-0.1-0.5C20.5,2.4,20.7,2.4,20.8,2.7z"/>
		<path class="st4" d="M19.5,28c-2.3-1.6-3.8-3.8-4.6-6.4c-0.4-1.4-0.3-2.8,0.5-4c0.9-1.5,1.4-3.1,1.5-4.8c0.3-5.5,5.2-9.4,9.8-10.5
			c3.5-0.8,6.8-0.3,9.8,1.5c1.6,1.2,2.3,2.9,2.9,4.6c2.1,6.3-0.5,13.8-6.4,17.6c-2.7,1.7-5.5,2.6-8.7,2.8C22.7,28.8,21,28.7,19.5,28
			z"/>
		<path class="st5" d="M19.5,28c1,0,1.9,0.3,2.8,0.4c8.5,0.9,16.3-5.2,17.4-13.6c0.5-3.9-0.4-7.5-3-10.6c-0.1-0.1-0.2-0.3-0.3-0.5
			c3.4,1.8,5.6,4.5,6.1,8.3c0.3,2,0.6,3.9,1.7,5.6c1,1.6,0.8,3.5,0,5.2c-1.5,3.1-3.9,5.4-7.1,6.8c-5.7,2.4-11.2,2.1-16.5-0.9
			C20.2,28.6,19.8,28.4,19.5,28z"/>
		<path class="st6" d="M43.6,12.3c-0.3-1.8-0.8-3.6-1.9-5.2c-0.2-0.3-0.2-0.5,0.2-0.6c4.5-1.8,9-2,13.3,0.6c0.5,0.3,0.9,0.6,1.2,1.1
			c-0.1,1.3-0.8,2.2-1.7,2.9c-2,1.7-4.4,2.3-6.9,2.5c-1,0.1-2,0.1-3-0.4C44.3,13.1,43.8,12.9,43.6,12.3z"/>
		<path class="st6" d="M2.7,8.8C4.1,6.9,6.1,6,8.3,5.5c2.9-0.6,5.8-0.4,8.7,0.7c0.3,0.4,0,0.7-0.1,0.9c-2.4,3.7-6.5,5.8-11,4.5
			c-1.1-0.3-2-1-2.8-1.9C2.7,9.5,2.6,9.2,2.7,8.8z"/>
		<path class="st7" d="M2.7,8.8c0.5,1.4,1.7,2.2,2.9,2.6c2.6,0.9,5.1,0.6,7.4-0.9c1.7-1.1,3.2-2.3,3.9-4.2c0.1,0,0.2,0.1,0.3,0.1
			c0.7,0.2,0.9,0.5,0.4,1.2c-1.3,1.9-1.6,4.1-1.9,6.3c0,0.2,0,0.5-0.1,0.7c-0.3,1.3-0.4,1.4-1.7,1c-3-0.7-6-1.4-8.8-2.4
			C4.6,13,4,12.8,3.5,12.5C1.7,11.5,1.5,10.5,2.7,8.8z"/>
		<path class="st7" d="M43.6,12.3c1.3,1.2,2.9,1.3,4.5,1.1c2.3-0.3,4.5-0.8,6.3-2.3c0.9-0.8,1.4-1.8,1.9-2.8
			c0.1,0.1,0.2,0.2,0.3,0.3c1.4,1.8,1.2,3-0.9,4c-2.5,1.2-5.2,1.8-7.9,2.5c-1,0.3-2.1,0.4-3.1,0.8c-0.5,0.2-0.6-0.2-0.7-0.5
			C43.7,14.4,43.7,13.4,43.6,12.3z"/>
		<path class="st8" d="M22.9,15.4c0-1.1,0.8-2,1.8-2c1,0,1.9,0.9,1.8,1.9c0,1-0.9,1.9-1.9,1.9C23.6,17.3,22.9,16.5,22.9,15.4z"/>
		<path class="st9" d="M36.7,15.4c0,1.1-0.7,1.9-1.7,1.9c-1,0-1.9-0.9-1.9-1.9c0-1.1,0.8-1.9,1.8-2C35.9,13.4,36.7,14.3,36.7,15.4z"
			/>
		<path class="st10" d="M29,17.7c0.4,0.2,0.8,0.1,1.4-0.1c0.6-0.2,1.1,0.3,1.1,1c0,0.9-0.8,1.7-1.6,1.7c-1,0-1.9-0.8-1.9-1.7
			C27.9,18,28.2,17.7,29,17.7z"/>
		<path class="st11" d="M31.7,24.4c-0.8-0.1-1.1-0.4-1.3-0.8c-0.5-0.8-0.9-0.7-1.5-0.2c-0.1,0.1-0.3,0.4-0.6,0.2
			c0.4-0.5,0.8-1,1.2-1.5c0.2-0.3,0.4-0.1,0.6,0.1C30.7,22.8,31,23.6,31.7,24.4z"/>
		<path class="st12" d="M26,10.5c0,0.7-1.1,1.3-1.6,1c-0.2-0.1-0.4-0.3-0.1-0.5c0.4-0.2,0.9-0.4,1.3-0.7C25.9,10.3,26,10.4,26,10.5z
			"/>
		<path class="st13" d="M35.5,5.5c0.3,0.3,0.3,0.6,0.1,0.9c0,0-0.2,0-0.2,0C35.1,6.1,35.4,5.8,35.5,5.5z"/>
		<path class="st14" d="M17.4,20.9c0,0.2-0.2,0.2-0.3,0.2c-0.2,0-0.4-0.1-0.4-0.4c0-0.2,0.2-0.2,0.3-0.2
			C17.2,20.5,17.4,20.6,17.4,20.9z"/>
		<path class="st15" d="M36.8,6c-0.1,0.2-0.1,0.4-0.4,0.4c-0.1,0-0.3-0.1-0.2-0.2c0-0.2,0.2-0.5,0.5-0.5C36.8,5.7,36.8,5.8,36.8,6z"
			/>
		<path class="st16" d="M18.2,20.1c0,0.1-0.1,0.2-0.2,0.2c-0.2,0-0.4-0.2-0.4-0.4c0-0.2,0-0.3,0.2-0.3
			C17.9,19.7,18.1,19.9,18.2,20.1z"/>
		<path class="st17" d="M41.7,20.1c-0.3-0.7,0.4-1,0.8-1.1c0.6,0,0.2,0.4,0.1,0.7C42.5,20.2,42.2,20.4,41.7,20.1z"/>
		<path class="st18" d="M43.2,20.1c0.2,0.2,0.2,0.4,0,0.6c-0.3,0.2-0.6,0.2-0.9,0C42.1,19.8,42.7,20.1,43.2,20.1z"/>
		<path class="st19" d="M43.2,20.1c-0.4,0-0.9-0.1-0.9,0.6c-0.2-0.2-0.4-0.4-0.6-0.6c0.4,0.1,0.6-0.2,0.9-0.4
			C42.8,19.9,43,20,43.2,20.1z"/>
		<path class="st20" d="M51.1,6.4C51,6.7,51,7,50.6,7.1c-0.2,0-0.4-0.1-0.3-0.3c0-0.4,0.3-0.6,0.7-0.7C51.1,6,51.2,6.2,51.1,6.4z"/>
		<path class="st21" d="M52.1,6.6c0.2,0,0.3,0.1,0.2,0.3c0,0.3-0.1,0.5-0.4,0.5c-0.2,0-0.4-0.1-0.3-0.3C51.7,6.9,51.9,6.7,52.1,6.6z
			"/>
		<path class="st22" d="M24.2,14.2c0.3,0,0.5,0.2,0.5,0.4c0,0.3-0.2,0.5-0.4,0.5c-0.2,0-0.4-0.1-0.4-0.4
			C23.8,14.4,23.9,14.3,24.2,14.2z"/>
		<path class="st23" d="M35,14.6c0,0.3-0.1,0.5-0.4,0.5c-0.3,0-0.5-0.1-0.6-0.4c0-0.3,0.1-0.5,0.4-0.5C34.7,14.1,34.9,14.3,35,14.6z
			"/>
		<path class="st24" d="M29.4,18.4c0,0.2-0.2,0.3-0.3,0.3c-0.2,0-0.4-0.1-0.4-0.3c0-0.2,0.1-0.2,0.3-0.3
			C29.2,18.1,29.3,18.3,29.4,18.4z"/>
	</g>
</g>
</svg>
