<?xml version="1.0" encoding="utf-8"?>
<!-- Generator: Adobe Illustrator 22.1.0, SVG Export Plug-In . SVG Version: 6.00 Build 0)  -->
<svg version="1.1" id="Layer_1" xmlns="http://www.w3.org/2000/svg" xmlns:xlink="http://www.w3.org/1999/xlink" x="0px" y="0px"
	 viewBox="0 0 60 34" style="enable-background:new 0 0 60 34;" xml:space="preserve">
<style type="text/css">
	.st0{fill:#A7958D;}
	.st1{fill:#A1938D;}
	.st2{fill:#232322;}
	.st3{fill:#484848;}
	.st4{fill:#FBD870;}
	.st5{fill:#B94F16;}
	.st6{fill:#F67D46;}
	.st7{fill:#B52E0D;}
	.st8{fill:#F3F3F3;}
	.st9{fill:#C5C5C5;}
	.st10{fill:#F2F2F2;}
	.st11{fill:#F1F1F1;}
	.st12{fill:#C3C3C3;}
	.st13{fill:#BEBEBE;}
	.st14{fill:#C2C2C2;}
	.st15{fill:#ECECEC;}
	.st16{fill:#E8E7E7;}
	.st17{fill:#D0D0D0;}
	.st18{fill:#B9B9B9;}
	.st19{fill:#DEDEDE;}
	.st20{fill:#030301;}
	.st21{fill:#030302;}
	.st22{fill:#16130A;}
	.st23{fill:#1B170C;}
	.st24{fill:#CB742F;}
	.st25{fill:#C9702B;}
	.st26{fill:#C9702C;}
	.st27{fill:#CC7730;}
	.st28{fill:#F4C966;}
	.st29{fill:#F5CD68;}
	.st30{fill:#C86E2A;}
	.st31{fill:#D2D2D2;}
	.st32{fill:#EBEBEB;}
	.st33{fill:#CACACA;}
</style>
<g>
	<path class="st0" d="M58.8,11.1L58.8,11.1c0,0.4,0,0.9,0,1.3v0c0.1,0,0.1,0,0.2,0c0-0.4,0-0.9,0-1.3C59,11.1,58.9,11,58.8,11.1z"/>
	<path class="st1" d="M0.7,11.1c-0.1,0-0.1,0-0.2,0c0,0.4,0,0.9,0,1.3c0.1,0,0.1,0,0.2,0C0.7,12,0.7,11.5,0.7,11.1L0.7,11.1z"/>
	<path d="M58.8,11.1L58.8,11.1c-0.7-2.3-2.3-3.6-4.3-4.6c-2.6-1.3-5.5-1.4-8.3-1.1c-0.6,0.1-1,0.2-1.1-0.7C45,4,44.5,3.5,43.7,3.6
		c-0.3,0-0.4-0.1-0.6-0.3c-0.5-0.7-1.2-0.8-2-0.5c-0.8,0.3-1.3,0.8-1.2,1.7c0,0.6,0.1,1.2,0.2,2C40,6.2,39.8,6,39.7,5.9
		c-2.2-2.1-4.9-3.2-7.8-3.7C31,1.9,30.2,2.2,29.4,2c-0.1,0-0.2,0-0.3,0c-0.5,0.2-1,0-1.5,0.1c-1.8,0.4-3.5,0.9-5,1.9
		c-0.2,0.3-0.5,0.4-0.9,0.4c-0.4-0.1-0.5-0.5-0.8-0.7c-0.3,0-0.3,0.2-0.3,0.4c0.5,0.6,0.3,1-0.3,1.6c-1,1-1.8,1.3-3.2,0.6
		c-2.3-1.1-4.8-1.2-7.4-1c-0.3,0-0.6,0.2-0.8-0.2C8.7,4.8,8.7,4.1,8.3,4.3c-0.4,0.1,0.1,0.6-0.1,1c0,0,0,0.1,0,0.1
		C7.7,5.3,7.7,4.5,7.1,4.7c0.6,0.8,0.3,1-0.5,1.2c-2.7,0.9-4.9,2.3-5.9,5.2v0c0,0.4,0,0.9,0,1.3c0.6,1.6,1.9,2.3,3.4,2.9
		c3.1,1.3,6.4,1.8,9.6,2.6c0.6,0.1,0.7,0.2,0.4,0.8c-0.7,1.7-0.7,3.5,0,5.3c1.1,2.7,2.8,4.9,5.2,6.5c4,2.5,8.4,3.5,13.1,2.9
		c5.1-0.8,9.4-2.9,12.2-7.6c1.3-2.3,1.9-4.6,0.7-7.2c-0.2-0.4-0.1-0.5,0.3-0.6c1.4-0.3,2.7-0.6,4.1-0.9c2.2-0.5,4.4-1.1,6.4-2.1
		c1.2-0.6,2.2-1.3,2.6-2.6v0C58.8,12,58.8,11.5,58.8,11.1z M46.9,6.6c0.4-0.2,0.8-0.1,1.4-0.1c-0.9,1.2-1.7,2.3-2.5,3.4
		c-0.8,1.1-1.5,2.2-2.3,3.4c-0.2-1.1-0.2-2.1-0.6-3c-0.1-0.3,0.2-0.5,0.3-0.8c0.2-0.3,0.5-0.6,0.7-1C44.3,7.1,45.4,6.5,46.9,6.6z
		 M43.4,5.1c0.1-0.2,0.2-0.5,0.5-0.5c0.3,0,0.3,0.3,0.4,0.6c0.1,0.3-0.1,0.5-0.4,0.6C43.6,5.8,43.4,5.9,43,6
		C43.1,5.6,43.2,5.3,43.4,5.1z M43.8,7.2c-0.2,0.3-0.2,0.7-0.6,0.9c0,0.3-0.2,0.5-0.4,0.7l0,0c0,0.1,0,0.1-0.1,0.2
		c-0.7,0.3-0.5-0.5-0.8-0.7c-0.3-0.2-0.3-0.5,0.2-0.5c0,0,0.1-0.1,0.2,0C42.7,7.4,43.3,7.4,43.8,7.2z M42.1,3.7
		c0.4,0.2,0.3,0.5,0.3,0.9c-0.2,0.8-0.5,1.5-0.9,2.3C41.1,6.5,41,6.1,41,5.7C40.6,4.1,40.8,3.6,42.1,3.7z M14,16.7
		c-3-0.7-6-1.4-8.8-2.4C4.6,14,4,13.8,3.5,13.5c-1.8-1-1.9-2-0.7-3.7C4.1,7.9,6.1,7,8.3,6.5c2.9-0.6,5.8-0.4,8.7,0.7
		c0.1,0,0.2,0.1,0.3,0.1c0.7,0.2,0.9,0.5,0.4,1.2c-1.3,1.9-1.6,4.1-1.9,6.3c0,0.2,0,0.5-0.1,0.7C15.4,16.9,15.3,17,14,16.7z
		 M44.2,23.9c-1.5,3.1-3.9,5.4-7.1,6.8c-5.7,2.4-11.2,2.1-16.5-0.9c-0.4-0.2-0.8-0.4-1.1-0.8c-2.3-1.6-3.8-3.8-4.6-6.4
		c-0.4-1.4-0.3-2.8,0.5-4c0.9-1.5,1.4-3.1,1.5-4.8c0.3-5.5,5.2-9.4,9.8-10.5c3.5-0.8,6.8-0.3,9.8,1.5c0,0,0,0,0,0l0,0
		c3.1,1.7,5.3,4.1,5.9,7.7c0,0.2,0.1,0.5,0.1,0.7c-0.2,2.1,0.8,3.7,1.7,5.5C45.2,20.4,45,22.2,44.2,23.9z M44.8,16.9
		c-0.4,0-0.7-0.2-0.9-0.6c-0.5-1.1-0.5-2.3,0.1-3c1.6-2.1,3.1-4.2,4.7-6.3c0.3-0.4,2.2-0.6,2.5-0.3c0.3,0.3-0.1,0.6-0.3,0.8
		c-0.9,1.9-2.2,3.7-3.3,5.5c-0.6,1.1-1.3,2.2-1.9,3.3C45.6,16.8,45.3,16.9,44.8,16.9z M46.6,16.7c0,0-0.1,0-0.2-0.1
		c0.7-1,1.3-2.1,2-3.1c1.2-2,2.5-4.1,3.7-6.1C52.3,7,52.6,6.9,53,7.1c0.4,0.2,0.8,0.3,1.2,0.5c0.7,0.1,0.2,0.5,0.1,0.7
		c-1.2,1.9-2.5,3.8-3.5,5.8C49.9,15.9,48.5,16.5,46.6,16.7z M54,14.6c-1.1,0.4-2.2,0.7-3.3,1c1.5-2.2,2.8-4.4,4.2-6.7
		c0.2-0.3,0.2-1.2,0.9-0.5c0.4,0.2,0.7,0.5,0.9,0.7c0.2,0.2,0.2,0.4,0.1,0.7c-0.8,1.5-1.8,2.9-2.4,4.5C54.4,14.5,54.2,14.5,54,14.6z
		 M55.5,13.7c0.8-1,1.3-2.2,1.9-3.3C58.3,12.1,57.5,13.4,55.5,13.7z"/>
	<path class="st2" d="M22.5,4c-0.5-0.2-0.4-1.1-1-1.2c-0.3,0.6,0.1,1.1,0.1,1.6C22,4.4,22.3,4.3,22.5,4z"/>
	<path class="st3" d="M20.8,3.7c-0.1-0.2-0.3-0.3-0.4-0.2c-0.2,0.2-0.1,0.4,0.1,0.5C20.5,3.9,20.5,3.7,20.8,3.7z"/>
	<path class="st4" d="M39.8,15.8c0.5-3.9-0.4-7.5-3-10.6c-0.1-0.1-0.2-0.3-0.3-0.5c0,0,0,0,0,0c-3.1-1.8-6.4-2.3-9.8-1.5
		c-4.5,1.1-9.5,5-9.8,10.5c-0.1,1.7-0.6,3.3-1.5,4.8c-0.8,1.2-0.9,2.6-0.5,4c0.8,2.7,2.3,4.8,4.6,6.4c1,0,1.9,0.3,2.8,0.4
		C30.8,30.3,38.7,24.2,39.8,15.8z M36.6,6.7c0.2,0,0.2,0.1,0.2,0.3c-0.1,0.2-0.1,0.4-0.4,0.4c-0.1,0-0.3-0.1-0.2-0.2
		C36.2,6.9,36.4,6.7,36.6,6.7z M35.6,6.4c0.2,0.5,0.3,0.8,0.1,1.1c0,0-0.2,0-0.2,0C35.1,7.1,35.3,6.8,35.6,6.4z M34.9,14.5
		c1,0,1.8,0.9,1.8,2c0,1.1-0.8,1.9-1.8,1.9c-1,0-1.9-0.9-1.9-2C33,15.3,33.9,14.5,34.9,14.5z M30.5,24.7c-0.5-0.9-1.1-0.7-1.7-0.2
		c-0.1,0.1-0.2,0.2-0.6,0.1c0.5-0.6,0.8-1,1.2-1.5c0.3-0.3,0.5-0.2,0.7,0.1c0.6,0.6,1,1.3,1.6,2.2C31,25.4,30.7,25,30.5,24.7z
		 M29.1,18.8c0.3,0.2,0.8,0,1.4-0.1c0.4-0.1,0.7,0.1,0.9,0.5c0.3,0.6,0.1,1.2-0.3,1.7c-0.5,0.6-1.2,0.7-1.9,0.4
		c-0.7-0.3-1.2-0.8-1.2-1.6C27.9,19,28.2,18.6,29.1,18.8z M24.2,12.2c0.4-0.4,1-0.6,1.5-0.9c0.1-0.1,0.3,0.1,0.2,0.3
		c-0.2,0.6-0.6,0.9-1.2,0.9C24.5,12.5,24.1,12.4,24.2,12.2z M24.6,14.5c1,0,1.9,0.8,1.9,1.9c0,1-0.8,1.9-1.8,2c-1,0-1.8-0.8-1.8-1.9
		C22.9,15.4,23.6,14.5,24.6,14.5z M17.1,22.1c-0.2,0-0.4-0.1-0.5-0.3c-0.1-0.2,0.1-0.3,0.3-0.3c0.2,0,0.4,0.1,0.5,0.3
		C17.4,22,17.3,22.1,17.1,22.1z M17.9,21.3c-0.3,0-0.4-0.2-0.4-0.5c0-0.1,0.1-0.2,0.3-0.1c0.2,0.1,0.3,0.2,0.4,0.4
		C18.1,21.3,18,21.3,17.9,21.3z"/>
	<path class="st5" d="M42.5,13.2c0-0.2-0.1-0.5-0.1-0.7c-0.7-3.6-2.8-6-5.9-7.7l0,0c0.1,0.2,0.2,0.3,0.3,0.5c2.6,3.1,3.5,6.7,3,10.6
		c-1.1,8.4-8.9,14.5-17.4,13.6c-1-0.1-1.9-0.4-2.8-0.4c0.3,0.4,0.7,0.6,1.1,0.8c5.3,3,10.8,3.4,16.5,0.9c3.2-1.4,5.6-3.6,7.1-6.8
		c0.8-1.7,1-3.5,0-5.3C43.3,16.9,42.3,15.3,42.5,13.2z M43.2,21.7c-0.3,0.2-0.6,0.2-0.9,0c-0.2-0.2-0.4-0.4-0.6-0.6c0,0,0,0,0,0
		c0,0,0,0,0,0c-0.3-0.7,0.4-1,0.8-1.1c0.6,0,0.2,0.4,0.1,0.7c0,0,0,0,0,0c0,0,0,0,0,0c0.2,0.1,0.4,0.3,0.6,0.4
		C43.4,21.3,43.4,21.5,43.2,21.7z"/>
	<path class="st6" d="M5.7,12.4c2.6,0.9,5.1,0.6,7.4-0.9c1.7-1.1,3.2-2.3,3.9-4.2c-2.8-1.1-5.7-1.3-8.7-0.7C6.1,7,4.1,7.9,2.7,9.8
		C3.2,11.2,4.4,11.9,5.7,12.4z"/>
	<path class="st7" d="M15.7,15.6c0.1-0.2,0.1-0.5,0.1-0.7c0.2-2.2,0.5-4.4,1.9-6.3c0.5-0.7,0.3-1-0.4-1.2c-0.1,0-0.2-0.1-0.3-0.1
		c-0.7,2-2.2,3.2-3.9,4.2c-2.3,1.5-4.8,1.8-7.4,0.9c-1.3-0.4-2.5-1.2-2.9-2.6c-1.2,1.7-1,2.7,0.7,3.7C4,13.8,4.6,14,5.1,14.2
		C8,15.3,11,15.9,14,16.7C15.3,17,15.4,16.9,15.7,15.6z"/>
	<path class="st8" d="M45.3,14.4c0.5,0.2,0.7-0.2,0.9-0.5c1.4-2,2.8-4,4.3-6c0.1-0.2,0.3-0.3,0.5-0.3c0.2-0.3,0.6-0.5,0.3-0.8
		C51,6.4,49.1,6.6,48.8,7c-1.6,2.1-3.1,4.2-4.7,6.3C44.1,14.2,44.8,14.2,45.3,14.4z"/>
	<path class="st9" d="M56.8,9.1c-0.3-0.3-0.5-0.6-0.9-0.7c-0.2,0.3-0.5,0.6-0.9,0.5c-1.4,2.2-2.7,4.5-4.2,6.7c1.2-0.3,2.2-0.6,3.3-1
		c0.2-0.1,0.4-0.1,0.5-0.3c0.6-1.6,1.6-3,2.4-4.5C57,9.5,56.9,9.3,56.8,9.1z"/>
	<path class="st9" d="M54.3,8.2c0.1-0.2,0.6-0.6-0.1-0.7c-0.3,1-1.3,1.6-1.9,2.5c-0.5,0.8-1.1,1.5-1.7,2.3c-0.6,0.7-1.2,1.3-2.2,1.2
		c-0.7,1-1.3,2-2,3.1c0.2,0.1,0.2,0.1,0.2,0.1c1.8-0.2,3.3-0.8,4.2-2.6C51.8,12,53.1,10.2,54.3,8.2z"/>
	<path class="st9" d="M51,7.6c-0.2,0-0.4,0.1-0.5,0.3c-1.4,2-2.9,4-4.3,6c-0.2,0.3-0.4,0.8-0.9,0.5c-0.5-0.2-1.2-0.2-1.2-1
		c-0.6,0.7-0.7,1.9-0.1,3c0.2,0.4,0.4,0.6,0.9,0.6c0.5,0,0.7-0.1,1-0.5c0.6-1.1,1.3-2.2,1.9-3.3C48.8,11.2,50,9.5,51,7.6z"/>
	<path class="st10" d="M50.6,12.3c0.6-0.7,1.2-1.5,1.7-2.3c0.6-0.9,1.5-1.5,1.9-2.5c-0.4-0.2-0.8-0.3-1.2-0.5
		c-0.4-0.2-0.7-0.1-0.9,0.3c-1.2,2-2.5,4.1-3.7,6.1C49.4,13.6,50,13,50.6,12.3z"/>
	<path class="st11" d="M43.1,9.4c0.2,0.6,0.1,1.6,0.6,1.7c0.6,0.1,0.9-0.8,1.2-1.3c0.7-0.9,1.3-1.9,1.9-2.8c0.1-0.1,0.2-0.2,0-0.4
		c-1.5-0.1-2.5,0.5-3.2,1.9C43.6,8.8,43.3,9.1,43.1,9.4z"/>
	<path class="st12" d="M46.8,7c-0.6,0.9-1.3,1.9-1.9,2.8c-0.4,0.5-0.7,1.4-1.2,1.3c-0.6-0.1-0.4-1.1-0.6-1.7
		c-0.1,0.3-0.4,0.4-0.3,0.8c0.4,0.9,0.5,2,0.6,3c0.8-1.2,1.6-2.3,2.3-3.4c0.8-1.1,1.6-2.2,2.5-3.4c-0.5,0-1-0.1-1.4,0.1
		C47,6.7,46.9,6.9,46.8,7z"/>
	<path class="st13" d="M55.5,13.7c2.1-0.3,2.8-1.6,1.9-3.3C56.8,11.5,56.3,12.6,55.5,13.7z"/>
	<path class="st14" d="M41,5.7c0.1,0.4,0.1,0.8,0.4,1.1c0.4-0.8,0.8-1.5,0.9-2.3c0.1-0.3,0.2-0.7-0.3-0.9C41.7,4.4,41.7,5.2,41,5.7z
		"/>
	<path class="st15" d="M42.1,3.7c-1.3,0-1.5,0.4-1.1,2C41.7,5.2,41.7,4.4,42.1,3.7z"/>
	<path class="st16" d="M44.2,5.2c0-0.2-0.1-0.5-0.4-0.6c-0.3,0-0.4,0.3-0.5,0.5c-0.1,0.3-0.2,0.5-0.4,1c0.4-0.1,0.7-0.2,0.9-0.2
		C44.2,5.7,44.3,5.5,44.2,5.2z"/>
	<path class="st17" d="M43.2,8.1c-0.1-0.6-0.7-0.1-1-0.4c-0.1,0-0.1,0-0.2,0c0.2,0.4,0.2,0.9,0.7,1.1l0,0
		C42.8,8.5,42.8,8.3,43.2,8.1z"/>
	<path class="st18" d="M43.2,8.1c-0.3,0.1-0.4,0.4-0.4,0.7C43,8.7,43.2,8.4,43.2,8.1c0.4-0.2,0.4-0.6,0.6-0.9
		c-0.5,0.2-1.1,0.2-1.5,0.5C42.5,8,43.1,7.5,43.2,8.1z"/>
	<path class="st18" d="M42.1,7.8c-0.4,0.1-0.5,0.3-0.2,0.5c0.3,0.2,0.1,1,0.8,0.7c0,0,0-0.1,0.1-0.2C42.2,8.7,42.2,8.2,42.1,7.8z"/>
	<path class="st19" d="M55.8,8.4c-0.8-0.6-0.7,0.2-0.9,0.5C55.3,8.9,55.6,8.7,55.8,8.4z"/>
	<path class="st20" d="M24.7,18.3c1,0,1.8-0.9,1.8-2c0-1.1-0.9-1.9-1.9-1.9c-1,0-1.8,0.9-1.8,2C22.9,17.5,23.7,18.4,24.7,18.3z
		 M24.3,15.2c0.3,0,0.5,0.2,0.5,0.5c0,0.3-0.2,0.4-0.5,0.4c-0.2,0-0.4-0.2-0.4-0.4C23.8,15.4,24,15.2,24.3,15.2z"/>
	<path class="st21" d="M34.9,18.3c1,0,1.8-0.8,1.8-1.9c0-1.1-0.8-2-1.8-2c-1,0-1.9,0.9-1.9,1.9C33.1,17.4,33.9,18.3,34.9,18.3z
		 M34.4,15.2c0.3,0,0.5,0.2,0.5,0.5c0,0.3-0.2,0.5-0.5,0.5c-0.3,0-0.5-0.2-0.5-0.5C34,15.4,34.1,15.2,34.4,15.2z"/>
	<path class="st20" d="M29.2,21.2c0.7,0.3,1.4,0.2,1.9-0.4c0.4-0.5,0.6-1.1,0.3-1.7c-0.2-0.4-0.5-0.6-0.9-0.5
		c-0.5,0.1-1,0.3-1.4,0.1c-0.9-0.2-1.2,0.3-1.2,0.9C28,20.4,28.4,20.9,29.2,21.2z M29,19.1c0.2,0,0.4,0.2,0.4,0.3
		c0,0.2-0.1,0.3-0.6,0.3c0.1,0-0.1-0.1-0.1-0.3C28.7,19.2,28.8,19.1,29,19.1z"/>
	<path class="st22" d="M29.4,23.2c-0.4,0.5-0.8,0.9-1.2,1.5c0.4,0.1,0.5,0,0.6-0.1c0.6-0.5,1.2-0.7,1.7,0.2c0.2,0.3,0.5,0.7,1.1,0.7
		c-0.5-0.8-0.9-1.6-1.6-2.2C29.8,23,29.6,22.9,29.4,23.2z"/>
	<path class="st23" d="M24.8,12.6c0.6-0.1,1-0.3,1.2-0.9c0.1-0.2-0.1-0.4-0.2-0.3c-0.5,0.3-1.1,0.5-1.5,0.9
		C24.1,12.4,24.5,12.5,24.8,12.6z"/>
	<path class="st24" d="M35.6,7.4c0.2-0.3,0.2-0.6-0.1-1.1c-0.2,0.5-0.5,0.7-0.2,1.1C35.4,7.5,35.6,7.5,35.6,7.4z"/>
	<path class="st25" d="M16.9,21.5c-0.2,0-0.3,0.1-0.3,0.3c0.1,0.2,0.2,0.3,0.5,0.3c0.2,0,0.3-0.1,0.3-0.3
		C17.3,21.6,17.1,21.5,16.9,21.5z"/>
	<path class="st26" d="M36.4,7.4c0.3,0,0.3-0.2,0.4-0.4c0-0.1,0-0.3-0.2-0.3c-0.3,0-0.4,0.2-0.5,0.5C36.2,7.3,36.3,7.4,36.4,7.4z"/>
	<path class="st27" d="M17.8,20.7c-0.1-0.1-0.2,0-0.3,0.1c0,0.3,0.1,0.5,0.4,0.5c0.1,0,0.2,0,0.3-0.2C18.1,20.9,18,20.8,17.8,20.7z"
		/>
	<path class="st28" d="M42.6,20.7C42.6,20.7,42.6,20.7,42.6,20.7c0.1-0.3,0.5-0.7-0.1-0.7c-0.4,0-1,0.3-0.8,1.1c0,0,0,0,0,0
		C42.1,21.2,42.3,21,42.6,20.7z"/>
	<path class="st29" d="M42.3,21.7c0.3,0.2,0.6,0.2,0.9,0c0.2-0.2,0.3-0.4,0-0.6C42.8,21.2,42.3,21.1,42.3,21.7z"/>
	<path class="st30" d="M43.2,21.1c-0.2-0.1-0.4-0.3-0.6-0.4c0,0,0,0,0,0c-0.3,0.2-0.5,0.5-0.9,0.4c0,0,0,0,0,0
		c0.2,0.2,0.4,0.4,0.6,0.6C42.3,21.1,42.8,21.2,43.2,21.1z"/>
	<path class="st31" d="M24.2,16.1c0.3,0,0.5-0.1,0.5-0.4c0-0.3-0.2-0.4-0.5-0.5c-0.3,0-0.4,0.2-0.4,0.5C23.8,15.9,24,16.1,24.2,16.1
		z"/>
	<path class="st32" d="M34.5,16.2c0.3,0,0.4-0.2,0.5-0.5c-0.1-0.3-0.2-0.5-0.5-0.5c-0.3,0-0.4,0.2-0.4,0.5
		C34,16,34.2,16.2,34.5,16.2z"/>
	<path class="st33" d="M28.8,19.7c0.4,0,0.6-0.1,0.6-0.3c0-0.2-0.2-0.3-0.4-0.3c-0.2,0-0.3,0.1-0.3,0.3
		C28.7,19.6,28.8,19.7,28.8,19.7z"/>
</g>
</svg>
