<?xml version="1.0" encoding="utf-8"?>
<!-- Generator: Adobe Illustrator 22.1.0, SVG Export Plug-In . SVG Version: 6.00 Build 0)  -->
<svg version="1.1" id="Layer_1" xmlns="http://www.w3.org/2000/svg" xmlns:xlink="http://www.w3.org/1999/xlink" x="0px" y="0px"
	 viewBox="0 0 60 34" style="enable-background:new 0 0 60 34;" xml:space="preserve">
<style type="text/css">
	.st0{fill:none;}
	.st1{fill:#AA988F;}
	.st2{fill:#A1938D;}
	.st3{fill:#311E15;}
	.st4{fill:#232322;}
	.st5{fill:#484848;}
	.st6{fill:#FBD870;}
	.st7{fill:#B94F16;}
	.st8{fill:#F67D46;}
	.st9{fill:#B52E0D;}
	.st10{fill:#BB1E1F;}
	.st11{fill:#FD51A2;}
	.st12{fill:#030301;}
	.st13{fill:#030302;}
	.st14{fill:#080703;}
	.st15{fill:#CB742F;}
	.st16{fill:#C9702B;}
	.st17{fill:#CC7730;}
	.st18{fill:#C9702C;}
	.st19{fill:#F4C966;}
	.st20{fill:#F5CD68;}
	.st21{fill:#C86E2A;}
	.st22{fill:#26130B;}
	.st23{fill:#32190E;}
	.st24{fill:#FEF7FA;}
	.st25{fill:#FEDCEC;}
	.st26{fill:#D2D2D2;}
	.st27{fill:#EBEBEB;}
	.st28{fill:#CACACA;}
</style>
<g>
	<path class="st0" d="M38.3,30.1C38.3,30.1,38.3,30.1,38.3,30.1C38.3,30.1,38.3,30.1,38.3,30.1C38.3,30.1,38.3,30.1,38.3,30.1
		C38.3,30.1,38.3,30.1,38.3,30.1z"/>
	<path class="st1" d="M58.8,9.9L58.8,9.9L58.8,9.9c0,0.4,0,0.9,0,1.3v0l0,0c0.1,0,0.1,0,0.2,0c0-0.4,0-0.9,0-1.3
		C58.9,9.9,58.9,9.9,58.8,9.9z"/>
	<path class="st2" d="M0.6,10c0,0.4,0,0.9,0,1.3c0.1,0,0.1,0,0.2,0c0-0.4,0-0.9,0-1.3C0.7,9.9,0.6,9.9,0.6,10z"/>
	<path d="M38.3,30.1C38.3,30.1,38.3,30.1,38.3,30.1C38.3,30.1,38.3,30.1,38.3,30.1L38.3,30.1C38.3,30.1,38.3,30.1,38.3,30.1
		C38.3,30.1,38.3,30.1,38.3,30.1C38.3,30.1,38.3,30.1,38.3,30.1C38.3,30.1,38.3,30.1,38.3,30.1z"/>
	<path d="M58.8,9.9L58.8,9.9c-0.7-2.3-2.3-3.7-4.3-4.6c-4.4-1.9-8.7-1.7-13,0.2c-0.3,0.1-0.6,0.4-1,0c-2.3-2.6-5.3-4-8.7-4.6
		c-0.8-0.2-1.7,0.1-2.5-0.1c-0.1,0-0.2,0-0.3,0c-0.5,0.2-1,0-1.5,0.1c-1.8,0.4-3.5,0.9-5,1.9c-0.2,0.3-0.5,0.4-0.9,0.4
		c-0.4-0.1-0.5-0.5-0.8-0.7c-0.3,0-0.3,0.2-0.3,0.4c0.5,0.6,0.3,1-0.3,1.6c-1,1-1.8,1.3-3.2,0.6c-2.3-1.1-4.8-1.2-7.4-1
		c-0.3,0-0.6,0.2-0.8-0.2C8.7,3.6,8.7,3,8.3,3.1c-0.4,0.1,0.1,0.6-0.1,1c0,0,0,0.1,0,0.1c-0.6-0.6-0.6-0.6-1-0.6
		c0.4,0.9,0.4,0.9-0.5,1.2C3.9,5.7,1.7,7.1,0.7,10c0,0.4,0,0.9,0,1.3c0.6,1.6,1.9,2.3,3.4,2.9c3.1,1.3,6.4,1.8,9.6,2.6
		c0.6,0.1,0.7,0.2,0.5,0.8c-0.6,1.3-0.7,2.7-0.4,4.1c0.4,1.9,1.5,3.6,2.7,5.1c4.7,5.6,14.9,7.3,21.6,3.6l0,0h0
		c0.1-0.1,0.1-0.2,0.2-0.4c0,0,0,0,0,0c-0.2,0-0.4-0.1-0.5-0.4c0.3,0,0.4,0.2,0.5,0.4c0,0,0,0,0,0c0,0,0,0,0,0
		c0.2,0.1,0.5,0.1,0.5,0.4c0,0,0,0,0,0c0.7,0.6,1.6,0.9,2.4,1.1c2.7,0.7,5.1-0.1,7-2.1c1.1-1.2,1.3-2.6,0.7-4.1
		c-0.6-1.5-1.7-2.3-3.4-2.3c-0.1,0-0.1-0.1-0.2-0.1c0.7-1.8,0.7-3.7-0.1-5.4c-0.2-0.4-0.1-0.5,0.3-0.6c1.4-0.3,2.7-0.6,4.1-0.9
		c2.2-0.5,4.4-1.1,6.4-2.1c1.2-0.6,2.2-1.3,2.6-2.6v0C58.8,10.8,58.8,10.4,58.8,9.9z M14,15.5c-3-0.7-6-1.4-8.8-2.4
		c-0.6-0.2-1.2-0.5-1.7-0.8c-1.8-1-1.9-2-0.7-3.7c1.4-1.9,3.3-2.8,5.5-3.2c2.9-0.6,5.8-0.4,8.7,0.7l0,0c0.1,0,0.2,0.1,0.3,0.1
		c0.7,0.2,0.9,0.5,0.4,1.2c-1.3,1.9-1.6,4.1-1.9,6.3c0,0.2,0,0.5-0.1,0.7C15.4,15.8,15.3,15.8,14,15.5z M37.2,28.8
		c0.3,0.6,0.2,0.7-0.4,0.9c-5.6,2.3-11,1.9-16.3-1.1c-0.4-0.2-0.8-0.4-1.1-0.8c-2.3-1.6-3.8-3.8-4.6-6.4c-0.4-1.4-0.3-2.8,0.5-4
		c0.9-1.5,1.4-3.1,1.5-4.8c0.3-5.5,5.2-9.4,9.8-10.5c3.5-0.8,6.8-0.3,9.8,1.5c0,0,0,0,0,0c0,0,0,0,0,0c3.4,1.8,5.6,4.5,6.1,8.3
		c0.3,2,0.6,3.9,1.7,5.6c1.2,2,0.6,5-1,6.8c-0.3,0.3-0.4,0.3-0.6,0c-1.7-1.5-3.1-1.7-4.4-0.6C36.7,25,36.3,27,37.2,28.8z M45.4,24.6
		c0.9-0.3,1.5,0.1,2,0.8c0.6,0.8,0.6,1.9,0.1,2.6c-1,1.5-3.9,2.6-5.7,2c-1.1-0.3-2.2-0.7-3.1-1.6c-0.7-0.7-0.9-1.5-0.5-2.5
		c0,0,0,0,0,0c0,0,0,0,0,0c0.7-1.6,2.1-1.9,3.4-0.6c0.5,0.4,0.6,1.4,1.4,1.3c0.7-0.1,0.8-0.9,1.3-1.3C44.7,25,45,24.7,45.4,24.6z
		 M55.8,12.5c-2.5,1.2-5.2,1.8-7.9,2.5c-1,0.3-2.1,0.4-3.1,0.8c-0.5,0.2-0.6-0.2-0.7-0.5c-0.4-1-0.5-2-0.5-3.1
		c-0.3-1.8-0.8-3.6-1.9-5.2c-0.2-0.3-0.2-0.5,0.2-0.6c4.5-1.8,9-2,13.3,0.6c0.5,0.3,0.9,0.6,1.2,1.1c0.1,0.1,0.2,0.2,0.3,0.3
		C58.1,10.3,57.9,11.4,55.8,12.5z"/>
	<polygon class="st3" points="38.3,30.1 38.3,30.1 38.3,30.1 	"/>
	<path class="st3" d="M38.3,30.1C38.3,30.1,38.3,30.1,38.3,30.1C38.3,30.1,38.3,30.1,38.3,30.1c-0.1,0.1-0.1,0.3-0.2,0.4h0
		c0.2,0,0.5,0,0.7,0c0,0,0,0,0,0C38.8,30.2,38.5,30.2,38.3,30.1z"/>
	<path class="st4" d="M22.5,2.9c-0.5-0.2-0.4-1.1-1.1-1.2c-0.2,0.6,0.1,1.1,0.2,1.6C22,3.3,22.3,3.2,22.5,2.9z"/>
	<path class="st5" d="M20.8,2.5c-0.1-0.2-0.3-0.3-0.4-0.2c-0.2,0.2-0.1,0.4,0.1,0.5C20.5,2.7,20.5,2.5,20.8,2.5z"/>
	<path class="st6" d="M39.8,14.7c0.5-3.9-0.4-7.5-3-10.6c-0.1-0.1-0.2-0.3-0.3-0.5c0,0,0,0,0,0c-3.1-1.8-6.4-2.3-9.8-1.5
		c-4.5,1.1-9.5,5-9.8,10.5c-0.1,1.7-0.6,3.3-1.5,4.8c-0.8,1.2-0.9,2.6-0.5,4c0.8,2.7,2.3,4.8,4.6,6.4c1,0,1.9,0.3,2.8,0.4
		C30.8,29.1,38.7,23.1,39.8,14.7z M36.2,5.9c0.1-0.2,0.2-0.4,0.4-0.4c0.2,0,0.2,0.2,0.2,0.3c0,0.2-0.2,0.4-0.4,0.4
		C36.2,6.2,36.1,6.1,36.2,5.9z M35.6,5.2c0.1,0.5,0.3,0.8,0,1.1c0,0-0.2,0-0.2-0.1C35.1,5.9,35.3,5.6,35.6,5.2z M34.9,13.3
		c1,0,1.8,0.8,1.8,1.9c0,1.1-0.7,1.9-1.7,1.9c-1,0-1.9-0.9-1.9-1.9C33,14.2,33.8,13.4,34.9,13.3z M29.1,17.6c0.3,0.2,0.8,0,1.3-0.1
		c0.6-0.1,1,0.2,1.1,0.8c0.1,0.9-0.7,1.8-1.6,1.9c-1,0-2-0.8-2-1.8C28,17.9,28.2,17.5,29.1,17.6z M28.4,22.6c1-0.8,1.7-0.4,2.7,0.1
		c1.3,0.7,2.4,0.1,3.2-1.6c0.4,1,0.1,1.6-0.6,2c-1.1,0.7-2.3,0.6-3.3,0c-0.4-0.3-0.7-0.3-1.1,0c-1.1,0.7-2.4,0.8-3.5-0.1
		c-0.6-0.5-0.9-1.1-0.4-1.9c0.4,0.6,0.6,1.3,1.2,1.5C27.2,22.8,27.9,23,28.4,22.6z M24.6,13.3c1,0,1.9,0.9,1.9,1.9
		c0,1-0.9,1.9-1.9,2c-1,0-1.8-0.8-1.8-1.9C22.9,14.2,23.6,13.3,24.6,13.3z M17.1,21c-0.2,0-0.4-0.1-0.4-0.4c0-0.2,0.2-0.2,0.3-0.2
		c0.2,0,0.4,0.1,0.5,0.3C17.4,20.9,17.2,21,17.1,21z M17.9,20.2c-0.2,0-0.4-0.2-0.4-0.4c0-0.1,0-0.3,0.2-0.3c0.3,0,0.4,0.2,0.5,0.4
		C18.2,20.1,18,20.2,17.9,20.2z"/>
	<path class="st7" d="M42.6,24.4c0.3,0.2,0.4,0.3,0.6,0c1.6-1.8,2.2-4.8,1-6.8c-1.1-1.8-1.4-3.6-1.7-5.6c-0.5-3.9-2.7-6.5-6.1-8.3
		c0,0,0,0,0,0c0.1,0.2,0.2,0.3,0.3,0.5c2.6,3.1,3.5,6.7,3,10.6c-1.1,8.4-8.9,14.5-17.4,13.6c-1-0.1-1.9-0.4-2.8-0.4
		c0.3,0.4,0.7,0.6,1.1,0.8c5.2,3,10.7,3.4,16.3,1.1c0.5-0.2,0.7-0.4,0.4-0.9c-1-1.8-0.5-3.8,1-5C39.6,22.7,40.9,22.8,42.6,24.4z
		 M42.5,19c0.6,0,0.2,0.4,0.1,0.7c0,0,0,0,0,0c0,0,0,0,0,0c0.2,0.1,0.4,0.3,0.6,0.4c0.2,0.2,0.2,0.4,0,0.6c-0.3,0.2-0.6,0.2-0.9,0
		c-0.2-0.2-0.4-0.4-0.6-0.6c0,0,0,0,0,0c0,0,0,0,0,0C41.4,19.3,42.1,19,42.5,19z"/>
	<path class="st8" d="M48.1,13.3c2.3-0.3,4.5-0.8,6.3-2.3c0.9-0.8,1.4-1.8,1.9-2.8c-0.3-0.5-0.7-0.8-1.2-1.1
		c-4.3-2.6-8.8-2.4-13.3-0.6c-0.4,0.1-0.4,0.3-0.2,0.6c1.1,1.5,1.6,3.3,1.9,5.2C44.9,13.4,46.5,13.5,48.1,13.3z M52.1,6.5
		c0.2,0,0.2,0.1,0.2,0.3c0,0.2-0.1,0.4-0.4,0.5c-0.2,0-0.4-0.1-0.3-0.3C51.7,6.7,51.9,6.5,52.1,6.5z M51,5.9c0.2,0,0.2,0.2,0.2,0.3
		C51,6.6,51,6.9,50.6,7c-0.2,0-0.3-0.1-0.3-0.3C50.3,6.2,50.6,6,51,5.9z"/>
	<path class="st8" d="M5.7,11.2c2.6,0.9,5.1,0.6,7.4-0.9c1.7-1.1,3.2-2.3,3.9-4.2C14.1,5,11.2,4.8,8.3,5.4C6.1,5.9,4.1,6.7,2.7,8.6
		C3.2,10.1,4.4,10.8,5.7,11.2z"/>
	<path class="st9" d="M15.7,14.5c0.1-0.2,0.1-0.5,0.1-0.7c0.2-2.2,0.5-4.4,1.9-6.3c0.5-0.7,0.3-1-0.4-1.2c-0.1,0-0.2-0.1-0.3-0.1
		l0,0c-0.7,2-2.2,3.2-3.9,4.2c-2.3,1.5-4.8,1.8-7.4,0.9c-1.3-0.4-2.5-1.2-2.9-2.6c-1.2,1.7-1,2.7,0.7,3.7c0.5,0.3,1.1,0.5,1.7,0.8
		C8,14.2,11,14.8,14,15.5C15.3,15.8,15.4,15.8,15.7,14.5z"/>
	<path class="st9" d="M56.4,8.1c-0.5,1-1,2.1-1.9,2.8c-1.9,1.5-4.1,2.1-6.3,2.3c-1.6,0.2-3.2,0.1-4.5-1.1c0.1,1,0.1,2.1,0.5,3.1
		c0.1,0.3,0.2,0.7,0.7,0.5c1-0.4,2.1-0.5,3.1-0.8c2.7-0.7,5.4-1.3,7.9-2.5c2.1-1,2.3-2.2,0.9-4C56.6,8.3,56.5,8.2,56.4,8.1z"/>
	<path class="st10" d="M45.7,25.9c-0.3,1.6-2,2.9-3.7,2.9c-1.8,0-3.2-1.1-3.7-2.8c0,0,0,0,0,0c-0.4,0.9-0.2,1.7,0.5,2.5
		c0.8,0.9,1.9,1.3,3.1,1.6c1.7,0.5,4.7-0.5,5.7-2c0.5-0.7,0.5-1.8-0.1-2.6c-0.5-0.7-1.1-1.1-2-0.8C46,24.9,45.8,25.4,45.7,25.9z"/>
	<path class="st11" d="M43.1,26.7c-0.8,0.1-0.9-0.9-1.4-1.3c-1.3-1.2-2.7-1-3.4,0.6c0,0,0,0,0,0c0.4,1.7,1.9,2.8,3.7,2.8
		c1.7,0,3.4-1.3,3.7-2.9c0.1-0.4,0.3-0.9-0.3-1.2c-0.4,0.1-0.8,0.4-1.1,0.7C43.9,25.7,43.7,26.6,43.1,26.7z M41.5,26.5
		c0.2,0,0.4,0.1,0.4,0.4c0,0.2-0.1,0.3-0.3,0.4c-0.2,0-0.4-0.1-0.4-0.4C41.1,26.6,41.3,26.5,41.5,26.5z M39.8,25.1
		c0.3,0.1,0.7,0.1,0.9,0.4c0.1,0.1,0.3,0.3,0.2,0.5c-0.5,0.7-1.1-0.1-1.7,0.2c-0.2,0.1-0.4-0.1-0.4-0.4
		C38.9,25.3,39.3,25.1,39.8,25.1z"/>
	<path class="st3" d="M38.3,30.1c-0.1-0.2-0.2-0.4-0.5-0.4C37.9,29.9,38.1,30.1,38.3,30.1C38.3,30.1,38.3,30.1,38.3,30.1
		C38.3,30.1,38.3,30.1,38.3,30.1z"/>
	<polygon class="st3" points="38.3,30.1 38.3,30.1 38.3,30.1 	"/>
	<path class="st12" d="M24.7,17.2c1,0,1.8-0.9,1.9-2c0-1.1-0.8-1.9-1.9-1.9c-1,0-1.8,0.9-1.8,2C22.9,16.4,23.7,17.2,24.7,17.2z
		 M24.3,14.1c0.3,0,0.5,0.2,0.4,0.5c0,0.3-0.2,0.4-0.5,0.4c-0.2,0-0.4-0.2-0.4-0.4C23.8,14.2,24,14.1,24.3,14.1z"/>
	<path class="st13" d="M35,17.2c1,0,1.7-0.9,1.7-1.9c0-1.1-0.8-2-1.8-1.9c-1,0-1.8,0.9-1.8,2C33.1,16.3,34,17.2,35,17.2z M34.5,14
		c0.3,0,0.5,0.2,0.5,0.5c0,0.3-0.2,0.5-0.5,0.5c-0.3,0-0.5-0.2-0.5-0.5C34,14.3,34.2,14.1,34.5,14z"/>
	<path class="st14" d="M25.3,21.1c-0.5,0.9-0.2,1.5,0.4,1.9c1.1,0.8,2.3,0.8,3.5,0.1c0.4-0.3,0.7-0.2,1.1,0c1.1,0.6,2.2,0.7,3.3,0
		c0.7-0.4,1-1,0.6-2c-0.8,1.7-1.9,2.3-3.2,1.6c-1-0.5-1.7-0.9-2.7-0.1c-0.5,0.4-1.2,0.2-1.9,0C25.9,22.3,25.7,21.7,25.3,21.1z"/>
	<path class="st12" d="M29.9,20.2c0.8,0,1.7-1,1.6-1.9c-0.1-0.6-0.5-1-1.1-0.8c-0.5,0.1-1,0.3-1.3,0.1c-0.9-0.2-1.1,0.2-1.2,0.8
		C27.9,19.4,28.9,20.3,29.9,20.2z M29,18c0.2,0,0.3,0.2,0.4,0.3c0,0.2-0.2,0.3-0.3,0.3c-0.2,0-0.4-0.1-0.4-0.3
		C28.7,18,28.8,18,29,18z"/>
	<path class="st15" d="M35.6,6.3c0.3-0.3,0.2-0.6,0-1.1c-0.3,0.4-0.5,0.7-0.3,1C35.4,6.3,35.5,6.4,35.6,6.3z"/>
	<path class="st16" d="M17,20.4c-0.1,0-0.3,0-0.3,0.2c0,0.2,0.2,0.4,0.4,0.4c0.2,0,0.3,0,0.3-0.2C17.4,20.5,17.2,20.4,17,20.4z"/>
	<path class="st17" d="M17.7,19.5c-0.2,0-0.2,0.1-0.2,0.3c0.1,0.2,0.2,0.4,0.4,0.4c0.1,0,0.3-0.1,0.2-0.2
		C18.1,19.7,17.9,19.6,17.7,19.5z"/>
	<path class="st18" d="M36.4,6.3c0.2,0,0.4-0.2,0.4-0.4c0-0.1,0-0.3-0.2-0.3c-0.3,0-0.4,0.2-0.4,0.4C36.1,6.1,36.2,6.2,36.4,6.3z"/>
	<path class="st19" d="M41.7,20c0.4,0.1,0.6-0.2,0.9-0.4c0,0,0,0,0,0c0.1-0.3,0.5-0.7-0.1-0.7C42.1,19,41.4,19.3,41.7,20
		C41.7,20,41.7,20,41.7,20z"/>
	<path class="st20" d="M42.3,20.6c0.3,0.2,0.6,0.2,0.9,0c0.2-0.2,0.3-0.4,0-0.6C42.8,20,42.3,19.9,42.3,20.6z"/>
	<path class="st21" d="M41.7,20C41.7,20,41.7,20,41.7,20c0.2,0.2,0.4,0.4,0.6,0.6c0-0.6,0.5-0.5,0.9-0.6c-0.2-0.1-0.4-0.3-0.6-0.4
		c0,0,0,0,0,0C42.3,19.8,42.1,20.1,41.7,20z"/>
	<path class="st22" d="M50.6,7c0.4,0,0.5-0.4,0.6-0.7c0-0.1,0-0.3-0.2-0.3c-0.4,0.1-0.7,0.3-0.7,0.7C50.2,6.8,50.3,7,50.6,7z"/>
	<path class="st23" d="M51.9,7.3c0.3,0,0.4-0.3,0.4-0.5c0-0.2-0.1-0.4-0.2-0.3c-0.2,0.1-0.4,0.2-0.5,0.5C51.6,7.2,51.7,7.3,51.9,7.3
		z"/>
	<path class="st24" d="M39.2,26.2c0.6-0.3,1.2,0.5,1.7-0.2c0.1-0.2-0.1-0.3-0.2-0.5c-0.2-0.3-0.6-0.3-0.9-0.4
		c-0.4,0.1-0.9,0.2-1,0.7C38.8,26.1,39,26.3,39.2,26.2z"/>
	<path class="st25" d="M41.5,27.2c0.2,0,0.3-0.2,0.3-0.4c0-0.3-0.2-0.4-0.4-0.4c-0.2,0-0.3,0.1-0.3,0.3
		C41.2,27.1,41.3,27.2,41.5,27.2z"/>
	<path class="st26" d="M24.2,15c0.3,0,0.5-0.1,0.5-0.4c0-0.3-0.2-0.4-0.4-0.5c-0.3,0-0.5,0.2-0.5,0.5C23.8,14.8,24,14.9,24.2,15z"/>
	<path class="st27" d="M34.5,15c0.3,0,0.4-0.2,0.5-0.5c-0.1-0.3-0.2-0.5-0.5-0.5c-0.3,0-0.4,0.2-0.4,0.5C34,14.9,34.2,15,34.5,15z"
		/>
	<path class="st28" d="M29,18.5c0.2,0,0.3-0.1,0.3-0.3C29.3,18.1,29.2,18,29,18c-0.2,0-0.3,0.1-0.3,0.3C28.7,18.4,28.8,18.5,29,18.5
		z"/>
</g>
</svg>
