<?xml version="1.0" encoding="utf-8"?>
<!-- Generator: Adobe Illustrator 22.1.0, SVG Export Plug-In . SVG Version: 6.00 Build 0)  -->
<svg version="1.1" id="Layer_1" xmlns="http://www.w3.org/2000/svg" xmlns:xlink="http://www.w3.org/1999/xlink" x="0px" y="0px"
	 viewBox="0 0 60 34" style="enable-background:new 0 0 60 34;" xml:space="preserve">
<style type="text/css">
	.st0{fill:#A7958D;}
	.st1{fill:#A1938D;}
	.st2{fill:#232322;}
	.st3{fill:#484848;}
	.st4{fill:#FBD870;}
	.st5{fill:#B94F16;}
	.st6{fill:#F67D46;}
	.st7{fill:#B52E0D;}
	.st8{fill:#F3F3F3;}
	.st9{fill:#C5C5C5;}
	.st10{fill:#F2F2F2;}
	.st11{fill:#F1F1F1;}
	.st12{fill:#C3C3C3;}
	.st13{fill:#BEBEBE;}
	.st14{fill:#C2C2C2;}
	.st15{fill:#ECECEC;}
	.st16{fill:#E8E7E7;}
	.st17{fill:#D0D0D0;}
	.st18{fill:#B9B9B9;}
	.st19{fill:#DEDEDE;}
	.st20{fill:#030301;}
	.st21{fill:#030302;}
	.st22{fill:#16130A;}
	.st23{fill:#121008;}
	.st24{fill:#42BFD9;}
	.st25{fill:#3E361C;}
	.st26{fill:#DAB45B;}
	.st27{fill:#1B170C;}
	.st28{fill:#EBCA69;}
	.st29{fill:#A68F4A;}
	.st30{fill:#41BFD7;}
	.st31{fill:#201B0E;}
	.st32{fill:#AC944C;}
	.st33{fill:#CB742F;}
	.st34{fill:#D5B75F;}
	.st35{fill:#C9702B;}
	.st36{fill:#CC7730;}
	.st37{fill:#C9702C;}
	.st38{fill:#2A2413;}
	.st39{fill:#2E2815;}
	.st40{fill:#504524;}
	.st41{fill:#554925;}
	.st42{fill:#3C341B;}
	.st43{fill:#2C2614;}
	.st44{fill:#0D0C06;}
	.st45{fill:#221D0F;}
	.st46{fill:#2F2915;}
	.st47{fill:#4A3F21;}
	.st48{fill:#231E10;}
	.st49{fill:#D9B058;}
	.st50{fill:#F4C966;}
	.st51{fill:#F5CD68;}
	.st52{fill:#C86E2A;}
	.st53{fill:#D2D2D2;}
	.st54{fill:#EBEBEB;}
	.st55{fill:#CACACA;}
	.st56{fill:#3A321A;}
	.st57{fill:#CEEFF7;}
</style>
<g>
	<path class="st0" d="M59.9,10.1L59.9,10.1L59.9,10.1c0,0.5,0,0.9,0,1.4v0l0,0c0.1,0,0.1,0,0.2,0c0-0.4,0-0.9,0-1.3
		C60,10.1,60,10.1,59.9,10.1z"/>
	<path class="st1" d="M0.7,10.1L0.7,10.1c-0.1,0-0.1,0-0.2,0c0,0.4,0,0.9,0,1.3c0.1,0,0.1,0,0.2,0C0.7,11,0.7,10.6,0.7,10.1
		L0.7,10.1z"/>
	<path d="M40.6,12.2c0,0,0,0.1,0,0.1C40.6,12.3,40.6,12.2,40.6,12.2C40.6,12.2,40.6,12.2,40.6,12.2C40.6,12.2,40.6,12.2,40.6,12.2z"
		/>
	<path d="M59.9,10.1L59.9,10.1c-0.7-2.3-2.3-3.7-4.4-4.7C52.8,4.1,50,4,47,4.3c-0.6,0.1-1,0.2-1.1-0.7c-0.1-0.7-0.6-1.2-1.4-1.1
		c-0.3,0-0.4-0.1-0.6-0.3c-0.5-0.8-1.3-0.8-2-0.5c-0.8,0.3-1.3,0.8-1.2,1.7c0,0.6,0.2,1.3,0.2,2c-0.2-0.3-0.4-0.4-0.5-0.6
		c-2.3-2.1-5-3.3-8-3.8c-0.8-0.2-1.7,0.1-2.5-0.1c-0.1,0-0.2,0-0.3,0c-0.5,0.2-1.1,0-1.6,0.1c-1.8,0.4-3.5,1-5.1,1.9
		c-0.2,0.3-0.5,0.4-0.9,0.4c-0.4-0.1-0.5-0.5-0.8-0.8c-0.3,0-0.3,0.2-0.3,0.4c0.5,0.7,0.3,1.1-0.3,1.7c-1,1-1.8,1.3-3.2,0.6
		C15,4.1,12.4,4,9.8,4.2C9.6,4.2,9.2,4.4,9,4C8.9,3.7,8.8,3.1,8.4,3.2c-0.5,0.1,0.1,0.7-0.1,1c0,0,0,0.1,0,0.1
		C7.8,4.2,7.8,3.4,7.2,3.6c0.6,0.8,0.3,1-0.5,1.3c-2.7,0.9-5,2.4-6,5.3v0c0,0.5,0,0.9,0,1.4c0.6,1.7,2,2.4,3.5,3
		c3.1,1.3,6.5,1.9,9.8,2.6c0.6,0.1,0.7,0.3,0.5,0.8c-0.7,1.8-0.7,3.6,0,5.3c1.1,2.7,2.8,5,5.3,6.6c4.1,2.6,8.6,3.6,13.3,2.9
		c5.2-0.8,9.6-3,12.4-7.7c1.4-2.3,1.9-4.7,0.8-7.3c-0.2-0.4-0.1-0.5,0.3-0.6c1.4-0.3,2.8-0.6,4.2-0.9c2.2-0.5,4.5-1.1,6.6-2.1
		c1.2-0.6,2.2-1.3,2.7-2.6v0C59.9,11,59.9,10.6,59.9,10.1z M47.7,5.6c0.4-0.2,0.9-0.1,1.4-0.1c-0.9,1.2-1.7,2.3-2.5,3.5
		c-0.8,1.1-1.6,2.2-2.4,3.4c-0.2-1.1-0.2-2.1-0.7-3.1c-0.1-0.3,0.2-0.5,0.3-0.8c0.2-0.3,0.5-0.6,0.7-1C45.1,6,46.2,5.4,47.7,5.6z
		 M44.1,4.1c0.1-0.2,0.2-0.6,0.5-0.5c0.3,0,0.3,0.4,0.4,0.6c0.1,0.3-0.1,0.5-0.4,0.6c-0.3,0-0.5,0.3-0.8,0.1
		C43.9,4.6,44,4.3,44.1,4.1z M44.6,6.2c-0.2,0.3-0.2,0.7-0.6,0.9c0,0.3-0.2,0.5-0.4,0.7l0,0c0,0.1,0,0.1-0.1,0.2
		c-0.7,0.3-0.5-0.5-0.8-0.7c-0.3-0.2-0.3-0.5,0.2-0.5c0,0,0.1-0.1,0.2,0C43.5,6.4,44,6.4,44.6,6.2z M42.8,2.6
		c0.5,0.2,0.4,0.5,0.3,0.9c-0.2,0.8-0.5,1.5-1,2.3c-0.3-0.4-0.3-0.8-0.4-1.2C41.3,3,41.5,2.5,42.8,2.6z M14.2,15.8
		c-3-0.7-6.1-1.4-9-2.5c-0.6-0.2-1.2-0.5-1.7-0.8c-1.8-1-2-2-0.7-3.7c1.4-1.9,3.4-2.8,5.6-3.3c3-0.6,5.9-0.4,8.8,0.7l0,0
		c0.1,0,0.2,0.1,0.4,0.1c0.7,0.2,0.9,0.5,0.4,1.2c-1.4,1.9-1.7,4.2-1.9,6.4c0,0.2,0,0.5-0.1,0.7C15.7,16.1,15.6,16.1,14.2,15.8z
		 M45,23.2c-1.5,3.2-3.9,5.5-7.2,6.9c-5.8,2.5-11.4,2.1-16.8-1c-0.4-0.2-0.9-0.4-1.1-0.8c-2.4-1.6-3.9-3.8-4.7-6.5
		c-0.4-1.4-0.3-2.8,0.5-4c1-1.5,1.4-3.1,1.5-4.9c0.3-5.6,5.3-9.6,10-10.7c3.5-0.8,6.9-0.3,10,1.5c0,0,0,0,0,0c3.2,1.7,5.4,4.2,6,7.9
		c0,0.2,0.1,0.5,0.1,0.7c-0.2,2.1,0.8,3.8,1.8,5.6C46,19.6,45.9,21.4,45,23.2z M45.7,16c-0.4,0-0.7-0.2-0.9-0.6
		c-0.5-1.1-0.5-2.4,0.1-3c1.6-2.2,3.2-4.3,4.8-6.5c0.3-0.4,2.2-0.6,2.5-0.3c0.3,0.4-0.1,0.6-0.3,0.8c-1,2-2.2,3.7-3.3,5.6
		c-0.6,1.1-1.3,2.2-2,3.3C46.4,15.9,46.1,16.1,45.7,16z M47.5,15.8c0,0-0.1,0-0.2-0.1c0.7-1.1,1.3-2.1,2-3.1
		c1.3-2.1,2.5-4.1,3.8-6.2C53.3,6,53.5,5.9,53.9,6c0.4,0.2,0.8,0.3,1.2,0.5c0.7,0.1,0.2,0.5,0.1,0.7c-1.2,2-2.5,3.8-3.6,5.9
		C50.8,15,49.3,15.6,47.5,15.8z M55,13.6c-1.1,0.4-2.2,0.7-3.4,1c1.5-2.2,2.9-4.5,4.3-6.8c0.2-0.3,0.2-1.2,0.9-0.5
		c0.4,0.2,0.7,0.5,0.9,0.8C58,8.3,58,8.5,57.9,8.8c-0.8,1.5-1.8,3-2.4,4.6C55.4,13.6,55.2,13.6,55,13.6z M56.5,12.7
		c0.8-1,1.3-2.1,1.9-3.3C59.3,11.1,58.8,12.3,56.5,12.7z"/>
	<path class="st2" d="M22.9,2.9c-0.5-0.3-0.4-1.1-1-1.2C21.6,2.3,22,2.8,22,3.3C22.4,3.4,22.7,3.2,22.9,2.9z"/>
	<path class="st3" d="M21.2,2.6c-0.1-0.3-0.3-0.3-0.4-0.2c-0.2,0.2-0.1,0.4,0.1,0.5C20.9,2.8,20.9,2.5,21.2,2.6z"/>
	<path class="st4" d="M39.7,18.1c0-0.1,0-0.2,0.1-0.4c0,0,0,0,0,0c0,0,0,0,0,0c-0.1-0.7,0.2-1.4,0.4-2.1c0.3-1.2,0-2.4,0.2-3.6
		c-0.3-0.4-0.7-0.8-1.1-1.1c-0.1,0.1-0.1,0.1-0.2,0.2c-0.1,0.2,0.2,0.3,0,0.5c-0.1,0-0.3-0.1-0.4-0.1c-0.9,0.1,0.1-0.5-0.2-0.6
		c-0.1,0-0.1-0.1-0.2-0.1c-0.1,0.1-0.2,0.1-0.4,0.2c-0.1,0.3-0.2,0.6-0.6,0.6c-0.1-0.4,0.2-0.6,0.4-0.8c0.1-0.2,0.4-0.3,0.4-0.6
		c-0.6-0.1-0.6-0.5-0.4-1c-0.1-0.4-0.8-0.9-0.5-1c0.4-0.2,0.7,0.4,1,0.8c0.1,0.1,0.2,0.2,0.3,0.3c0.2,0,0.4,0,0.6-0.1
		c0.2-0.3,0.4-0.7,0.7-0.9c0,0,0,0,0,0c-0.5-1.7-1.6-3.1-2.6-4.6h0c0,0,0,0,0,0c-3.1-1.8-6.5-2.3-10-1.5c-4.6,1.1-9.6,5.1-10,10.7
		c-0.1,1.8-0.6,3.4-1.5,4.9c-0.8,1.2-0.9,2.6-0.5,4c0.8,2.7,2.4,4.9,4.7,6.5c1,0,2,0.3,3,0.5C30,29.6,37.5,24.9,39.7,18.1z
		 M36.5,21.4c-0.3,0-0.5-0.2-0.4-0.5c0-0.3,0.2-0.5,0.5-0.4c0.3,0.1,0.4,0.3,0.4,0.6C36.9,21.3,36.8,21.4,36.5,21.4z M37.3,5.6
		c0.2,0,0.3,0.1,0.2,0.4c-0.1,0.2-0.1,0.4-0.4,0.3c-0.1,0-0.2-0.1-0.2-0.3C36.9,5.9,37,5.7,37.3,5.6z M36.2,5.4
		c0.2,0.4,0.3,0.8,0,1.1c0,0-0.2,0-0.2,0C35.7,6,36,5.7,36.2,5.4z M34.5,13.9c0.8-0.5,1.5-0.4,2.2,0.1c0.7,0.6,0.9,1.6,0.5,2.4
		c-0.1,0.2-0.3,0.5-0.5,0.7h0c0.2,0.3,0.5,0.6,0.4,1.1c-0.1,0.5-0.5,0.8-1,0.7c-0.8-0.2-0.9-0.7-0.8-1.4c-0.7-0.2-1.3-0.6-1.6-1.4
		C33.5,15.3,33.8,14.3,34.5,13.9z M32.3,24.8c-0.2,0.2-0.4,0-0.5-0.2c-0.1,0-0.2,0-0.3-0.1c-0.4-0.4-0.7-1-1.2-1.2
		c-0.5-0.2-0.9,0.6-1.6,0.6c0.4-0.5,0.8-1,1.2-1.5c0.3-0.4,0.5-0.1,0.7,0.1c0.6,0.5,0.8,1.3,1.4,1.8C32.3,24.4,32.5,24.6,32.3,24.8z
		 M29.4,17.9c0.5,0.1,1,0.1,1.6-0.1c0.6-0.1,1,0.3,1.1,0.9c0.1,0.8-0.7,1.8-1.5,1.9c-1,0.1-2.1-0.8-2.1-1.7
		C28.5,18.2,28.7,17.8,29.4,17.9z M17.4,21.3c-0.2,0-0.4-0.1-0.5-0.3c-0.1-0.2,0.1-0.3,0.3-0.3c0.2,0,0.4,0.1,0.5,0.3
		C17.8,21.2,17.6,21.3,17.4,21.3z M18.2,20.5c-0.2,0-0.4-0.2-0.4-0.4c0-0.1,0-0.3,0.2-0.2c0.3,0,0.5,0.2,0.5,0.5
		C18.5,20.5,18.3,20.5,18.2,20.5z M24.7,11.3c0.5-0.4,1-0.6,1.6-0.9c0.1-0.1,0.2,0.1,0.2,0.3c-0.2,0.6-0.7,0.9-1.2,1
		C24.9,11.6,24.5,11.4,24.7,11.3z M25.1,13.6c1,0,1.9,0.9,1.9,1.9c0,1.1-0.9,2-1.9,2c-1,0-1.8-0.8-1.8-1.9
		C23.3,14.5,24,13.6,25.1,13.6z M22,26.8c0.3,0.2,0.5,0.4,0.3,0.9c-0.2-0.3-0.4-0.5-0.5-0.7c-0.2-0.1-0.3-0.3-0.6-0.3
		c-0.3,0.2-0.6,0.7-0.8,0.4c-0.2-0.3,0.3-0.5,0.6-0.7c-0.1-0.4-0.2-0.7-0.7-0.7c-0.2,0-0.5,0.1-0.3-0.2c0.2-0.3-0.3-0.6,0.2-0.7
		c0,0,0.1,0,0.1,0c0,0,0,0.1,0,0.1c0.2,0,0.4,0,0.6,0c0.2-0.4,0.1-0.8-0.3-1.1c-0.3-0.2-0.6-0.5-0.7-0.9c0.3-0.1,0.4,0,0.5,0.2
		c0.6,0.8,1.2,1.4,2.1-0.1c0,0.9-0.7,1-0.8,1.6c0.1,0.2,0.3,0.4,0.4,0.6c0.1,0.1,0.1,0.1,0.2,0.2c0.2,0,0.6-0.4,0.4,0.2
		c-0.1,0.2,0.2,0.4,0.2,0.6c0.3,0.2,0.5,0.5,0.7,1c-0.6-0.1-0.7-0.5-0.9-0.8c-0.1-0.1-0.3-0.3-0.4-0.4c-0.2,0-0.4,0-0.6,0
		c0,0.1,0,0.1,0,0.2C21.8,26.3,21.9,26.6,22,26.8z"/>
	<path class="st5" d="M43.3,12.3c0-0.2-0.1-0.5-0.1-0.7c-0.7-3.7-2.9-6.1-6-7.9h0c1,1.4,2.1,2.8,2.6,4.6c0,0,0,0,0,0c0,0,0,0,0,0
		c0.4,0.4,0.4,0.8,0.4,1.3c0,0,0,0,0,0c0.2,0.6,0.6,1.1,0.2,1.7c0,0,0,0,0,0c0.2,0.5,0.8,0.6,0.9,1.2c-0.4,0.3-0.4-0.2-0.7-0.2
		c0,0,0,0.1,0,0.1c0,1.8,0,3.7-0.8,5.4c0,0,0,0,0,0c0,0.1,0,0.3-0.1,0.4c-2.3,6.8-9.8,11.5-16.9,10.7c-1-0.1-2-0.4-3-0.5
		c0.3,0.4,0.7,0.6,1.1,0.8c5.4,3.1,11,3.4,16.8,1c3.3-1.4,5.7-3.7,7.2-6.9c0.9-1.8,1-3.6,0-5.4C44.1,16.1,43.1,14.4,43.3,12.3z
		 M43.9,20.9c-0.3,0.2-0.6,0.2-0.9,0c-0.2-0.2-0.4-0.4-0.6-0.6c-0.3-0.7,0.4-1.1,0.8-1.1c0.7,0,0.2,0.4,0.1,0.7c0,0,0,0,0,0
		c0,0,0,0,0,0c0.2,0.1,0.4,0.3,0.6,0.4C44.2,20.6,44.2,20.8,43.9,20.9z"/>
	<path class="st6" d="M5.8,11.4c2.6,0.9,5.2,0.6,7.5-0.9c1.7-1.1,3.2-2.3,3.9-4.3c-2.9-1.1-5.8-1.3-8.8-0.7C6.2,5.9,4.2,6.8,2.8,8.8
		C3.3,10.3,4.5,11,5.8,11.4z"/>
	<path class="st7" d="M16,14.7c0.1-0.2,0.1-0.5,0.1-0.7c0.2-2.3,0.5-4.5,1.9-6.4c0.5-0.7,0.3-1-0.4-1.2c-0.1,0-0.2-0.1-0.4-0.1l0,0
		c-0.7,2-2.2,3.3-3.9,4.3C11,12,8.4,12.3,5.8,11.4c-1.3-0.4-2.5-1.2-3-2.6c-1.2,1.7-1.1,2.7,0.7,3.7c0.5,0.3,1.1,0.6,1.7,0.8
		c2.9,1.1,6,1.7,9,2.5C15.6,16.1,15.7,16.1,16,14.7z"/>
	<path class="st8" d="M46.1,13.5c0.5,0.2,0.7-0.2,0.9-0.6c1.4-2,2.9-4,4.3-6.1c0.1-0.2,0.3-0.3,0.5-0.3c0.2-0.3,0.6-0.5,0.3-0.8
		C51.9,5.3,50,5.6,49.7,6c-1.6,2.1-3.2,4.3-4.8,6.5C44.9,13.3,45.6,13.3,46.1,13.5z"/>
	<path class="st9" d="M57.8,8.1c-0.3-0.3-0.6-0.6-0.9-0.8c-0.2,0.3-0.5,0.6-0.9,0.5c-1.4,2.3-2.7,4.6-4.3,6.8c1.2-0.3,2.3-0.6,3.4-1
		c0.2-0.1,0.4-0.1,0.5-0.3c0.6-1.6,1.6-3.1,2.4-4.6C58,8.5,58,8.3,57.8,8.1z"/>
	<path class="st9" d="M55.3,7.2c0.1-0.2,0.6-0.6-0.1-0.7c-0.4,1.1-1.3,1.7-1.9,2.5c-0.5,0.8-1.2,1.6-1.8,2.3
		c-0.6,0.7-1.2,1.3-2.2,1.2c-0.7,1-1.3,2.1-2,3.1c0.2,0.1,0.2,0.1,0.2,0.1c1.9-0.2,3.3-0.8,4.2-2.7C52.7,11.1,54.1,9.2,55.3,7.2z"/>
	<path class="st9" d="M51.9,6.5c-0.3,0-0.4,0.1-0.5,0.3c-1.4,2-2.9,4-4.3,6.1c-0.2,0.3-0.4,0.8-0.9,0.6c-0.5-0.2-1.3-0.2-1.2-1.1
		c-0.6,0.7-0.7,2-0.1,3c0.2,0.4,0.4,0.6,0.9,0.6c0.5,0,0.7-0.1,1-0.6c0.6-1.1,1.3-2.2,2-3.3C49.7,10.3,51,8.5,51.9,6.5z"/>
	<path class="st10" d="M51.5,11.4c0.6-0.7,1.2-1.5,1.8-2.3c0.6-0.9,1.5-1.5,1.9-2.5c-0.4-0.2-0.8-0.3-1.2-0.5
		C53.5,5.9,53.3,6,53,6.4c-1.2,2.1-2.5,4.1-3.8,6.2C50.3,12.7,50.9,12.1,51.5,11.4z"/>
	<path class="st11" d="M43.8,8.4c0.2,0.6,0.1,1.6,0.6,1.7c0.6,0.1,0.9-0.8,1.2-1.3c0.7-0.9,1.3-1.9,2-2.9c0.1-0.1,0.2-0.3,0-0.4
		c-1.5-0.1-2.6,0.5-3.2,1.9C44.3,7.8,44.1,8.1,43.8,8.4z"/>
	<path class="st12" d="M47.7,6c-0.7,1-1.3,1.9-2,2.9c-0.4,0.5-0.7,1.5-1.2,1.3C43.9,10,44.1,9,43.8,8.4c-0.1,0.3-0.4,0.5-0.3,0.8
		c0.4,1,0.5,2,0.7,3.1c0.8-1.2,1.6-2.3,2.4-3.4c0.8-1.1,1.7-2.3,2.5-3.5c-0.6,0-1-0.1-1.4,0.1C47.9,5.7,47.8,5.8,47.7,6z"/>
	<path class="st13" d="M56.5,12.7c2.3-0.4,2.8-1.7,1.9-3.3C57.8,10.6,57.3,11.7,56.5,12.7z"/>
	<path class="st14" d="M41.7,4.6c0.1,0.4,0.1,0.8,0.4,1.2c0.5-0.8,0.8-1.5,1-2.3c0.1-0.3,0.2-0.7-0.3-0.9
		C42.5,3.3,42.5,4.2,41.7,4.6z"/>
	<path class="st15" d="M42.8,2.6c-1.3,0-1.5,0.4-1.1,2C42.5,4.2,42.5,3.3,42.8,2.6z"/>
	<path class="st16" d="M44.6,4.7c0.3-0.1,0.5-0.3,0.4-0.6c0-0.2-0.1-0.6-0.4-0.6c-0.3-0.1-0.4,0.3-0.5,0.5c-0.1,0.2-0.2,0.5-0.4,0.8
		C44.1,5,44.3,4.8,44.6,4.7z"/>
	<path class="st17" d="M44,7.1c-0.1-0.7-0.7-0.1-1-0.4c-0.1,0-0.1,0-0.2,0c0.2,0.4,0.2,1,0.8,1.1l0,0C43.6,7.5,43.6,7.2,44,7.1z"/>
	<path class="st18" d="M44,7.1c-0.4,0.1-0.4,0.4-0.4,0.7C43.8,7.7,43.9,7.4,44,7.1c0.4-0.2,0.4-0.6,0.6-0.9C44,6.4,43.5,6.4,43,6.7
		C43.3,7,43.9,6.5,44,7.1z"/>
	<path class="st18" d="M42.8,6.8c-0.4,0.1-0.5,0.3-0.2,0.5c0.3,0.2,0.1,1,0.8,0.7c0,0,0-0.1,0.1-0.2C43,7.7,43,7.2,42.8,6.8z"/>
	<path class="st19" d="M56.8,7.3c-0.8-0.7-0.7,0.2-0.9,0.5C56.3,7.9,56.6,7.7,56.8,7.3z"/>
	<path class="st20" d="M25.1,17.5c1,0,1.9-0.9,1.9-2c0-1.1-0.9-2-1.9-1.9c-1,0-1.8,0.9-1.8,2C23.3,16.7,24.1,17.5,25.1,17.5z
		 M24.7,14.3c0.3,0,0.4,0.2,0.5,0.5c-0.1,0.3-0.2,0.5-0.5,0.4c-0.2,0-0.4-0.2-0.4-0.4C24.2,14.5,24.4,14.3,24.7,14.3z"/>
	<path class="st21" d="M35.3,17.5c0.4-0.4,0.8-0.5,1.4-0.4c0.2-0.2,0.4-0.4,0.5-0.7c0.4-0.8,0.2-1.9-0.5-2.4
		c-0.7-0.6-1.4-0.6-2.2-0.1c-0.7,0.5-1.1,1.4-0.8,2.2C34,16.9,34.6,17.3,35.3,17.5z M35.1,14.3c0.4,0,0.5,0.2,0.5,0.5
		c0,0.3-0.2,0.5-0.5,0.5c-0.3,0-0.5-0.2-0.5-0.5C34.6,14.5,34.8,14.3,35.1,14.3z"/>
	<path class="st20" d="M30.5,20.6c0.8-0.1,1.6-1,1.5-1.9c-0.1-0.6-0.5-1-1.1-0.9c-0.5,0.1-1,0.2-1.6,0.1c-0.7-0.1-1,0.4-1,1
		C28.4,19.8,29.5,20.6,30.5,20.6z M29.5,18.3c0.2,0,0.4,0.2,0.4,0.3c0,0.2-0.1,0.3-0.3,0.3c-0.2,0-0.4-0.1-0.4-0.3
		C29.2,18.4,29.3,18.3,29.5,18.3z"/>
	<path class="st22" d="M30.6,22.5c-0.2-0.2-0.4-0.5-0.7-0.1c-0.4,0.5-0.8,1-1.2,1.5c0.7,0,1.1-0.7,1.6-0.6c0.5,0.2,0.8,0.8,1.2,1.2
		c0.1,0.1,0.2,0.1,0.3,0.1c0.1-0.1,0.2-0.1,0.3-0.2C31.4,23.8,31.2,23,30.6,22.5z"/>
	<path class="st23" d="M39.6,10.1L39.6,10.1C39.6,10.1,39.6,10.1,39.6,10.1c-0.2,0-0.3,0-0.4-0.1h0c-0.1-0.1-0.2-0.2-0.2-0.3l0,0
		c-0.2-0.2-0.3-0.4-0.5-0.5c-0.1-0.1-0.2-0.2-0.3-0.3c-0.3-0.4-0.6-1-1-0.8c-0.3,0.2,0.4,0.6,0.5,1c0.3,0.2,0.6,0.4,0.6,0.8
		c0.3,0.1,0.6,0.2,0.7,0.6c0,0,0,0,0,0c0,0,0,0,0,0c0.1,0.1,0.1,0.3,0.2,0.4c0.5,0.3,0.8,0.7,1.1,1.1c0.1,0.1,0.2,0.1,0.2,0.2
		c0,0,0,0,0,0c0,0,0,0,0,0c0,0,0,0,0,0c0.2,0.1,0.3,0.5,0.7,0.2c-0.1-0.5-0.7-0.7-0.9-1.2c0,0,0,0,0,0c0,0,0,0,0,0
		C40,11,39.5,10.8,39.6,10.1z"/>
	<path class="st24" d="M35.3,17.5c-0.2,0.7,0,1.3,0.8,1.4c0.5,0.1,0.9-0.2,1-0.7c0.1-0.4-0.2-0.8-0.4-1.1h0
		C36.1,17,35.7,17.1,35.3,17.5z M36.1,18c-0.1,0-0.2-0.1-0.3-0.2c0-0.1,0.1-0.2,0.2-0.3c0.1,0,0.2,0,0.3,0.2
		C36.3,17.9,36.3,18,36.1,18z"/>
	<path class="st25" d="M20.8,24.9L20.8,24.9C20.8,24.9,20.8,24.9,20.8,24.9c0.2-0.1,0.4-0.1,0.6-0.2c-0.1-0.2-0.3-0.3-0.1-0.5
		c0.2-0.1,0.2,0.2,0.4,0.3c0-0.6,0.8-0.7,0.8-1.6c-0.8,1.5-1.5,0.9-2.1,0.1c-0.1-0.1-0.2-0.3-0.5-0.2c0.1,0.4,0.4,0.7,0.7,0.9
		C21,24.1,21,24.5,20.8,24.9C20.8,24.9,20.8,24.9,20.8,24.9L20.8,24.9z"/>
	<path class="st26" d="M39,9.1c0,0.2,0,0.4-0.1,0.6l0,0l0,0c0.1,0.1,0.2,0.2,0.2,0.3h0c0,0,0,0,0,0c0.3,0,0.4-0.4,0.7-0.4
		c0.1,0,0.2,0,0.2,0c0,0,0,0,0,0c0,0,0,0,0,0c0-0.5-0.1-0.9-0.4-1.3c0,0,0,0,0,0C39.4,8.5,39.3,8.8,39,9.1z"/>
	<path class="st27" d="M25.2,11.7c0.5-0.1,1-0.3,1.2-1c0.1-0.2,0-0.4-0.2-0.3c-0.6,0.3-1.1,0.5-1.6,0.9
		C24.5,11.4,24.9,11.6,25.2,11.7z"/>
	<path class="st28" d="M40.6,12.2c-0.1-0.1-0.2-0.1-0.2-0.2c-0.1,1.2,0.1,2.4-0.2,3.6c-0.2,0.7-0.5,1.4-0.4,2.1c0,0,0,0,0,0
		c0.8-1.7,0.8-3.6,0.8-5.4C40.6,12.3,40.6,12.2,40.6,12.2C40.6,12.2,40.6,12.2,40.6,12.2z"/>
	<path class="st29" d="M22,25.3c-0.2-0.2-0.4-0.4-0.6-0.6c-0.2,0.1-0.4,0.1-0.6,0.2c-0.1,0.1-0.1,0.3-0.2,0.4
		c0.3,0.2,0.4,0.4,0.6,0.7l0,0c0.1,0,0.2,0.1,0.4,0.1c0.1,0,0.1,0,0.2,0c0-0.1,0-0.1,0-0.2C21.9,25.7,22.1,25.5,22,25.3z"/>
	<polygon class="st29" points="20.8,24.9 20.8,24.9 20.8,24.9 20.8,24.9 	"/>
	<path class="st30" d="M36.6,20.4c-0.3-0.1-0.5,0.2-0.5,0.4c0,0.3,0.1,0.5,0.4,0.5c0.3,0,0.4-0.1,0.4-0.4
		C37,20.7,36.9,20.5,36.6,20.4z"/>
	<path class="st31" d="M21.2,26C21.2,26,21.2,26,21.2,26L21.2,26c-0.1-0.3-0.3-0.5-0.6-0.7c-0.6,0.3-0.3-0.2-0.4-0.4
		c0,0,0-0.1,0-0.1c0,0,0,0-0.1,0c-0.5,0.1,0,0.5-0.2,0.7c-0.2,0.3,0.2,0.2,0.3,0.2c0.4,0,0.6,0.3,0.7,0.7c0,0,0.1,0,0.1,0
		C21.1,26.3,21.2,26.2,21.2,26z"/>
	<path class="st32" d="M39,10.5C39,10.5,39,10.5,39,10.5c-0.1-0.4-0.4-0.5-0.7-0.6c0,0.1,0,0.1,0,0.2c0,0.2,0,0.4,0,0.6
		c0.1,0,0.1,0.1,0.2,0.1C38.7,10.9,38.9,10.7,39,10.5z"/>
	<path class="st33" d="M36.2,6.4c0.2-0.3,0.2-0.6,0-1.1C36,5.7,35.7,6,36,6.4C36,6.4,36.2,6.4,36.2,6.4z"/>
	<path class="st34" d="M38.3,10.1c0-0.1,0-0.1,0-0.2c0-0.4-0.3-0.6-0.6-0.8c-0.2,0.5-0.2,0.8,0.4,1C38.2,10.2,38.2,10.2,38.3,10.1z"
		/>
	<path class="st35" d="M17.2,20.7c-0.2,0-0.3,0.1-0.3,0.3c0.1,0.2,0.3,0.3,0.5,0.3c0.2,0,0.3-0.1,0.3-0.3
		C17.7,20.8,17.5,20.7,17.2,20.7z"/>
	<path class="st36" d="M18,19.9c-0.2,0-0.2,0.1-0.2,0.2c0,0.2,0.2,0.4,0.4,0.4c0.1,0,0.3,0,0.3-0.2C18.5,20.1,18.3,19.9,18,19.9z"/>
	<path class="st22" d="M21.4,24.2c-0.2,0.1,0,0.3,0.1,0.5c0.2,0.2,0.4,0.4,0.6,0.6c0.1,0.3-0.1,0.4-0.2,0.6c0.2,0,0.4,0,0.6,0
		c0.3-0.2,0-0.4,0-0.6c-0.1-0.1-0.1-0.1-0.2-0.2c-0.1-0.2-0.3-0.4-0.4-0.6C21.6,24.5,21.6,24.1,21.4,24.2z"/>
	<path class="st37" d="M37,6.3c0.3,0,0.4-0.2,0.4-0.3c0-0.2,0-0.4-0.2-0.4c-0.2,0-0.4,0.2-0.4,0.5C36.8,6.2,36.9,6.3,37,6.3z"/>
	<path class="st38" d="M21.1,26.4C21.1,26.4,21.1,26.4,21.1,26.4C21,26.4,21,26.4,21.1,26.4c-0.4,0.2-1,0.3-0.7,0.7
		c0.3,0.4,0.6-0.2,0.8-0.4c0-0.1,0-0.1,0-0.2C21.2,26.5,21.1,26.5,21.1,26.4z"/>
	<path class="st39" d="M39,10.5C39,10.5,39,10.5,39,10.5c-0.2,0.2-0.3,0.4-0.6,0.3c0.3,0.1-0.6,0.7,0.2,0.6c0.1-0.2,0.2-0.3,0.4-0.4
		c0.1-0.1,0.1-0.1,0.2-0.2C39.2,10.8,39.1,10.6,39,10.5z"/>
	<path class="st27" d="M22.3,25.9c0.1,0.1,0.3,0.3,0.4,0.4c0.1-0.1,0.1-0.1,0.2-0.2c0-0.2-0.3-0.3-0.2-0.6c0.2-0.6-0.2-0.2-0.4-0.2
		C22.4,25.5,22.7,25.7,22.3,25.9z"/>
	<path class="st40" d="M23.6,27c-0.2-0.5-0.3-0.8-0.7-1c-0.1,0.1-0.1,0.1-0.2,0.2C22.9,26.6,23,26.9,23.6,27z"/>
	<path class="st41" d="M37.7,10.7c-0.3,0.2-0.5,0.4-0.4,0.8c0.4,0,0.5-0.3,0.6-0.6C37.8,10.8,37.8,10.8,37.7,10.7z"/>
	<path class="st42" d="M21.2,26.6C21.2,26.6,21.2,26.6,21.2,26.6c0,0.1,0,0.1,0,0.2c0.2,0,0.4,0.2,0.6,0.3c0.1-0.1,0.1-0.1,0.2-0.2
		c-0.1-0.2-0.1-0.5-0.2-0.7c-0.1,0-0.1,0-0.2,0C21.6,26.4,21.6,26.6,21.2,26.6z"/>
	<path class="st43" d="M22.3,27.8c0.2-0.5-0.1-0.7-0.3-0.9c-0.1,0.1-0.1,0.1-0.2,0.2C21.9,27.3,22.1,27.5,22.3,27.8z"/>
	<path class="st44" d="M20.6,25.3c0.1-0.1,0.1-0.3,0.2-0.4c0,0,0,0,0,0l0,0l0,0c0,0,0,0,0,0c-0.2,0-0.4,0-0.6,0
		C20.4,25.1,20.1,25.6,20.6,25.3z"/>
	<path class="st45" d="M38.3,10.1c-0.1,0-0.1,0-0.2,0c0,0.3-0.3,0.3-0.4,0.6c0.1,0.1,0.1,0.1,0.2,0.2c0.1-0.1,0.2-0.1,0.4-0.2
		C38.3,10.5,38.3,10.3,38.3,10.1z"/>
	<path class="st46" d="M31.8,24.6c0.1,0.2,0.3,0.4,0.5,0.2c0.2-0.2,0-0.4-0.3-0.4C31.9,24.4,31.8,24.5,31.8,24.6z"/>
	<path class="st47" d="M38.7,11.4c0.1,0,0.3,0.2,0.4,0.1c0.2-0.1-0.1-0.3,0-0.5C38.9,11.1,38.7,11.3,38.7,11.4z"/>
	<path class="st48" d="M39,9.7L39,9.7c0-0.2,0-0.4,0.1-0.6c-0.2,0-0.4,0-0.6,0.1C38.6,9.4,38.8,9.6,39,9.7z"/>
	<path class="st49" d="M40,9.6c0,0.3-0.1,0.4-0.3,0.6v0c-0.1,0.6,0.3,0.9,0.7,1.2c0,0,0,0,0,0c0.4-0.6,0-1.2-0.2-1.7c0,0,0,0,0,0
		C40.1,9.6,40,9.6,40,9.6z"/>
	<path class="st50" d="M43.4,20C43.4,20,43.4,20,43.4,20c0.1-0.3,0.5-0.7-0.1-0.7c-0.4,0-1.1,0.3-0.8,1.1
		C42.8,20.5,43.1,20.2,43.4,20z"/>
	<path class="st51" d="M43,20.9c0.3,0.2,0.6,0.2,0.9,0c0.3-0.2,0.3-0.4,0-0.6C43.5,20.4,43,20.3,43,20.9z"/>
	<path class="st52" d="M44,20.3c-0.2-0.1-0.4-0.3-0.6-0.4c0,0,0,0,0,0c-0.3,0.2-0.5,0.5-0.9,0.4c0.2,0.2,0.4,0.4,0.6,0.6
		C43,20.3,43.5,20.4,44,20.3z"/>
	<path class="st53" d="M24.7,15.2c0.3,0,0.4-0.2,0.5-0.4c0-0.3-0.2-0.5-0.5-0.5c-0.3,0-0.5,0.2-0.4,0.5C24.3,15,24.4,15.2,24.7,15.2
		z"/>
	<path class="st54" d="M35.1,15.3c0.3,0,0.5-0.2,0.5-0.5c0-0.3-0.2-0.5-0.5-0.5c-0.3,0-0.4,0.2-0.4,0.5
		C34.6,15.1,34.8,15.3,35.1,15.3z"/>
	<path class="st55" d="M29.6,18.9c0.2,0,0.3-0.1,0.3-0.3c0-0.2-0.2-0.3-0.4-0.3c-0.2,0-0.3,0.1-0.3,0.3
		C29.2,18.8,29.3,18.9,29.6,18.9z"/>
	<path class="st56" d="M39.6,10.1C39.6,10.1,39.6,10.1,39.6,10.1C39.9,10,40,9.8,40,9.6c-0.3,0.1-0.4,0.4-0.7,0.4c0,0,0,0,0,0
		C39.3,10.2,39.5,10.1,39.6,10.1z"/>
	<path class="st57" d="M36.1,17.5c-0.2,0-0.2,0.1-0.2,0.3c0,0.1,0.1,0.2,0.3,0.2c0.1,0,0.2-0.1,0.2-0.3
		C36.3,17.6,36.2,17.5,36.1,17.5z"/>
	<path class="st20" d="M21.1,26.4C21.1,26.4,21.1,26.4,21.1,26.4c0,0.1,0.1,0.1,0.1,0.2c0,0,0,0,0,0c0.4,0,0.4-0.2,0.4-0.5
		c-0.1,0-0.2-0.1-0.4-0.1c0,0,0,0,0,0C21.2,26.2,21.1,26.3,21.1,26.4z"/>
</g>
</svg>
