<?xml version="1.0" encoding="utf-8"?>
<!-- Generator: Adobe Illustrator 22.1.0, SVG Export Plug-In . SVG Version: 6.00 Build 0)  -->
<svg version="1.1" id="Layer_1" xmlns="http://www.w3.org/2000/svg" xmlns:xlink="http://www.w3.org/1999/xlink" x="0px" y="0px"
	 viewBox="0 0 60 34" style="enable-background:new 0 0 60 34;" xml:space="preserve">
<style type="text/css">
	.st0{fill:#A7958D;}
	.st1{fill:#A1938D;}
	.st2{fill:#232322;}
	.st3{fill:#484848;}
	.st4{fill:#FBD870;}
	.st5{fill:#B94F16;}
	.st6{fill:#F67D46;}
	.st7{fill:#B52E0D;}
	.st8{fill:#F3F3F3;}
	.st9{fill:#C5C5C5;}
	.st10{fill:#F2F2F2;}
	.st11{fill:#F1F1F1;}
	.st12{fill:#C3C3C3;}
	.st13{fill:#BEBEBE;}
	.st14{fill:#C2C2C2;}
	.st15{fill:#ECECEC;}
	.st16{fill:#E8E7E7;}
	.st17{fill:#D0D0D0;}
	.st18{fill:#B9B9B9;}
	.st19{fill:#DEDEDE;}
	.st20{fill:#030301;}
	.st21{fill:#030302;}
	.st22{fill:#030201;}
	.st23{fill:#121008;}
	.st24{fill:#42BFD9;}
	.st25{fill:#3E361C;}
	.st26{fill:#DAB45B;}
	.st27{fill:#1B170C;}
	.st28{fill:#EBCA69;}
	.st29{fill:#41BFD7;}
	.st30{fill:#201B0E;}
	.st31{fill:#CB742F;}
	.st32{fill:#AC944C;}
	.st33{fill:#D5B75F;}
	.st34{fill:#C9702B;}
	.st35{fill:#C9702C;}
	.st36{fill:#CC7730;}
	.st37{fill:#2A2413;}
	.st38{fill:#504524;}
	.st39{fill:#2E2815;}
	.st40{fill:#312A16;}
	.st41{fill:#16130A;}
	.st42{fill:#554925;}
	.st43{fill:#2C2614;}
	.st44{fill:#0D0C06;}
	.st45{fill:#221D0F;}
	.st46{fill:#3C341B;}
	.st47{fill:#F3D16C;}
	.st48{fill:#4A3F21;}
	.st49{fill:#231E10;}
	.st50{fill:#D9B058;}
	.st51{fill:#F4C966;}
	.st52{fill:#F5CD68;}
	.st53{fill:#C86E2A;}
	.st54{fill:#D2D2D2;}
	.st55{fill:#EBEBEB;}
	.st56{fill:#CACACA;}
	.st57{fill:#3A321A;}
	.st58{fill:#CEEFF7;}
	.st59{fill:#A68F4A;}
</style>
<g>
	<path class="st0" d="M58.9,10.1L58.9,10.1L58.9,10.1c0,0.4,0,0.9,0,1.3v0l0,0c0.1,0,0.1,0,0.2,0c0-0.4,0-0.9,0-1.3
		C59,10,58.9,10,58.9,10.1z"/>
	<path class="st1" d="M0.7,10.1L0.7,10.1c-0.1,0-0.1,0-0.2,0c0,0.4,0,0.9,0,1.3c0.1,0,0.1,0,0.2,0C0.7,11,0.7,10.5,0.7,10.1
		L0.7,10.1z"/>
	<path d="M39.9,12.1c0,0,0,0.1,0,0.1C39.9,12.2,39.9,12.2,39.9,12.1C39.9,12.1,39.9,12.1,39.9,12.1C39.9,12.1,39.9,12.1,39.9,12.1z"
		/>
	<path d="M58.9,10.1L58.9,10.1c-0.7-2.3-2.3-3.6-4.3-4.6c-2.6-1.3-5.5-1.4-8.3-1.1c-0.6,0.1-1,0.2-1.1-0.7C45,3,44.5,2.5,43.7,2.6
		c-0.3,0-0.4-0.1-0.6-0.3c-0.5-0.7-1.2-0.8-2-0.5C40.4,2,39.9,2.6,40,3.4c0,0.6,0.1,1.2,0.2,2C40,5.2,39.8,5,39.7,4.9
		c-2.2-2.1-4.9-3.2-7.8-3.7C31,0.9,30.2,1.2,29.4,1c-0.1,0-0.2,0-0.3,0c-0.5,0.2-1,0-1.5,0.1c-1.8,0.4-3.5,0.9-5,1.9
		c-0.2,0.3-0.5,0.4-0.9,0.4c-0.4-0.1-0.5-0.5-0.8-0.7c-0.3,0-0.3,0.2-0.3,0.4c0.5,0.6,0.3,1-0.3,1.6c-1,1-1.8,1.3-3.2,0.6
		c-2.3-1.1-4.8-1.2-7.4-1c-0.3,0-0.6,0.2-0.8-0.2C8.7,3.7,8.7,3.1,8.3,3.3c-0.4,0.1,0.1,0.6-0.1,1c0,0,0,0.1,0,0.1
		C7.7,4.2,7.7,3.5,7.1,3.6c0.6,0.8,0.3,1-0.5,1.2c-2.7,0.9-4.9,2.3-5.9,5.2v0c0,0.4,0,0.9,0,1.3c0.6,1.6,1.9,2.3,3.4,2.9
		c3.1,1.3,6.4,1.8,9.6,2.6c0.6,0.1,0.7,0.2,0.4,0.8c-0.7,1.7-0.7,3.5,0,5.3c1.1,2.7,2.8,4.9,5.2,6.5c4,2.5,8.4,3.5,13.1,2.9
		c5.1-0.8,9.4-2.9,12.2-7.6c1.3-2.3,1.9-4.6,0.7-7.2c-0.2-0.4-0.1-0.5,0.3-0.6c1.4-0.3,2.7-0.6,4.1-0.9c2.2-0.5,4.4-1.1,6.4-2.1
		c1.2-0.6,2.2-1.3,2.6-2.6v0C58.8,11,58.8,10.5,58.9,10.1z M46.9,5.6c0.4-0.2,0.8-0.1,1.4-0.1c-0.9,1.2-1.7,2.3-2.5,3.4
		c-0.8,1.1-1.5,2.2-2.3,3.4c-0.2-1.1-0.2-2.1-0.6-3c-0.1-0.3,0.2-0.5,0.3-0.8c0.2-0.3,0.5-0.6,0.7-1C44.3,6.1,45.4,5.5,46.9,5.6z
		 M43.4,4.1c0.1-0.2,0.2-0.6,0.5-0.5c0.3,0,0.3,0.4,0.4,0.6c0.1,0.4-0.2,0.5-0.5,0.6c-0.2,0-0.4,0.1-0.8,0.2
		C43.1,4.6,43.2,4.4,43.4,4.1z M43.8,6.2c-0.2,0.3-0.2,0.7-0.6,0.9c0,0.3-0.2,0.5-0.4,0.7l0,0c0,0.1,0,0.1-0.1,0.2
		c-0.7,0.3-0.5-0.5-0.8-0.7c-0.3-0.2-0.3-0.5,0.2-0.5c0,0,0.1-0.1,0.2,0C42.7,6.4,43.3,6.4,43.8,6.2z M42.1,2.7
		c0.4,0.2,0.3,0.5,0.3,0.9c-0.2,0.8-0.5,1.5-1,2.3C41.1,5.4,41,5.1,41,4.7C40.6,3.1,40.8,2.6,42.1,2.7z M14,15.6
		c-3-0.7-6-1.4-8.8-2.4C4.6,13,4,12.8,3.5,12.5c-1.8-1-1.9-2-0.7-3.7C4.1,6.9,6.1,6,8.3,5.5c2.9-0.6,5.8-0.4,8.7,0.7l0,0
		c0.1,0,0.2,0.1,0.3,0.1c0.7,0.2,0.9,0.5,0.4,1.2c-1.3,1.9-1.6,4.1-1.9,6.3c0,0.2,0,0.5-0.1,0.7C15.4,15.9,15.3,16,14,15.6z
		 M44.2,22.9c-1.5,3.1-3.9,5.4-7.1,6.8c-5.7,2.4-11.2,2.1-16.5-0.9c-0.4-0.2-0.8-0.4-1.1-0.8l0,0c0,0,0,0,0,0
		c-2.3-1.6-3.8-3.8-4.6-6.4c-0.4-1.4-0.3-2.8,0.5-4c0.9-1.5,1.4-3.1,1.5-4.8c0.3-5.5,5.2-9.4,9.8-10.5c3.5-0.8,6.8-0.3,9.8,1.5
		c0,0,0,0,0,0c3.1,1.7,5.3,4.1,5.9,7.7c0,0.2,0.1,0.5,0.1,0.7c-0.2,2.1,0.8,3.7,1.7,5.5C45.2,19.4,45.1,21.2,44.2,22.9z M44.9,15.9
		c-0.4,0-0.7-0.2-0.9-0.6c-0.5-1.1-0.5-2.3,0.1-3c1.6-2.1,3.1-4.2,4.7-6.3c0.3-0.4,2.2-0.6,2.5-0.3c0.3,0.3-0.1,0.6-0.3,0.8
		c-0.9,1.9-2.2,3.7-3.3,5.5c-0.6,1.1-1.3,2.2-1.9,3.3C45.6,15.8,45.3,15.9,44.9,15.9z M46.6,15.7c0,0-0.1,0-0.2-0.1
		c0.7-1,1.3-2.1,2-3.1c1.2-2,2.5-4.1,3.7-6.1C52.3,6,52.6,5.9,53,6.1c0.4,0.2,0.8,0.3,1.2,0.5c0.7,0.1,0.2,0.5,0.1,0.7
		c-1.2,1.9-2.5,3.8-3.5,5.8C49.9,14.9,48.5,15.5,46.6,15.7z M54,13.5c-1.1,0.4-2.2,0.7-3.3,1c1.5-2.2,2.8-4.4,4.2-6.7
		c0.2-0.3,0.2-1.2,0.9-0.5c0.4,0.2,0.7,0.5,0.9,0.7C57,8.3,57,8.5,56.9,8.8c-0.8,1.5-1.8,2.9-2.4,4.5C54.4,13.5,54.2,13.5,54,13.5z
		 M55.5,12.7c0.8-1,1.3-2.2,1.9-3.3C58.3,11.2,57.5,12.4,55.5,12.7z"/>
	<path class="st2" d="M22.5,3c-0.5-0.2-0.4-1.1-1-1.2c-0.3,0.6,0.1,1.1,0.1,1.6C22,3.4,22.3,3.3,22.5,3z"/>
	<path class="st3" d="M20.8,2.7c-0.1-0.2-0.3-0.3-0.4-0.2c-0.2,0.2-0.1,0.4,0.1,0.5C20.5,2.8,20.5,2.6,20.8,2.7z"/>
	<path class="st4" d="M34.4,24.6C34.4,24.6,34.4,24.6,34.4,24.6C34.4,24.6,34.4,24.6,34.4,24.6c0.1-0.4,0.4-0.8-0.1-1.1
		c-0.4-0.3-0.8-0.1-1.1,0.1c-0.7,0.4-1.1,0.3-1.5-0.5c-0.3-0.7-0.8-0.5-1.2-0.1c-0.8,1.1-1.7,1.3-3,0.7c-0.9-0.4-1.1,0.5-1.3,1.1
		c-0.5-0.7-0.3-1.4,0.4-1.7c0.4-0.2,0.9-0.2,1.3,0c0.7,0.3,1.2,0.2,1.8-0.4c1-1.1,1.6-1.1,2.6,0c0.3,0.4,0.6,0.1,0.8,0
		c1.1-0.3,1.7-0.1,2.2,0.9c1-0.5,1.5-1.5,2-2.3c0.7-1.1,1.4-2.3,1.6-3.6c0,0,0,0,0,0c0,0,0,0,0,0c-0.1-0.7,0.2-1.4,0.4-2.1
		c0.3-1.2,0-2.4,0.2-3.6c-0.3-0.4-0.7-0.8-1.1-1.1c-0.1,0.1-0.1,0.1-0.2,0.2c-0.1,0.2,0.2,0.3,0,0.5c-0.1,0-0.3-0.1-0.4-0.1
		c-0.8,0.1,0.1-0.5-0.2-0.6c-0.1,0-0.1-0.1-0.2-0.1c-0.1,0.1-0.2,0.1-0.4,0.2c-0.1,0.3-0.2,0.5-0.6,0.6c-0.1-0.4,0.1-0.6,0.4-0.8
		c0.1-0.2,0.4-0.3,0.4-0.5c-0.6-0.1-0.6-0.5-0.4-1c-0.1-0.4-0.8-0.8-0.5-1c0.4-0.2,0.7,0.4,1,0.8c0.1,0.1,0.2,0.2,0.3,0.3
		c0.2,0,0.4,0,0.6-0.1c0.2-0.3,0.4-0.7,0.7-0.9c0,0,0,0,0,0c-0.5-1.7-1.6-3.1-2.6-4.5h0c0,0,0,0,0,0c-3.1-1.8-6.4-2.3-9.8-1.5
		c-4.5,1.1-9.5,5-9.8,10.5c-0.1,1.7-0.6,3.3-1.5,4.8c-0.8,1.2-0.9,2.6-0.5,4c0.8,2.7,2.3,4.8,4.6,6.4c0,0,0,0,0,0
		c1,0,1.9,0.3,2.8,0.4C26.9,28.8,30.9,27.4,34.4,24.6z M31.4,24.5c-0.3,0-0.4-0.1-0.6-0.4C31.1,24.1,31.2,24.3,31.4,24.5z
		 M29.8,25.7c0.3,0.2,0.3,0.5,0.3,0.9c-0.3-0.2-0.5-0.4-0.5-0.8C29.6,25.8,29.7,25.7,29.8,25.7z M36,21.1c-0.3,0-0.5-0.1-0.5-0.4
		c0-0.3,0.1-0.5,0.4-0.5c0.3,0,0.4,0.2,0.5,0.5C36.3,20.9,36.2,21.1,36,21.1z M36.6,5.7c0.2,0,0.3,0.1,0.2,0.3
		c-0.1,0.2-0.1,0.4-0.4,0.4c-0.1,0-0.2-0.1-0.2-0.2C36.2,5.9,36.4,5.7,36.6,5.7z M35.6,5.4c0.2,0.4,0.3,0.7,0.1,1
		c-0.1,0.1-0.2,0.1-0.3,0C35.2,6,35.3,5.8,35.6,5.4z M33.9,13.8c0.7-0.5,1.5-0.4,2.1,0.1c0.6,0.5,0.8,1.6,0.5,2.4
		c-0.1,0.2-0.3,0.5-0.5,0.7h0c0.2,0.3,0.5,0.6,0.4,1.1c-0.1,0.5-0.5,0.8-1,0.7c-0.8-0.2-0.9-0.7-0.7-1.4c-0.7-0.2-1.3-0.6-1.5-1.4
		C32.9,15.1,33.2,14.2,33.9,13.8z M28.2,18c0.3-0.4,0.7-0.3,1.1-0.2c0.2,0,0.4,0.2,0.7,0.1c0.7-0.3,1.3-0.3,1.5,0.6
		c0.2,0.8-0.5,1.9-1.3,2c-0.1,0-0.2,0-0.5,0c-0.7,0-1.3-0.4-1.6-1.2C27.9,18.8,27.9,18.3,28.2,18z M17.1,21.1
		c-0.2,0-0.4-0.1-0.4-0.4c0-0.2,0.2-0.2,0.3-0.2c0.2,0,0.4,0.1,0.5,0.4C17.4,21.1,17.2,21.1,17.1,21.1z M17.8,20.3
		c-0.1,0-0.3-0.2-0.3-0.4c0-0.1,0.1-0.2,0.2-0.2c0.2,0.1,0.5,0.2,0.4,0.5C18.1,20.3,18,20.3,17.8,20.3z M24.2,11.2
		c0.4-0.4,1-0.6,1.5-0.9c0.1-0.1,0.3,0.1,0.2,0.3c-0.2,0.6-0.6,0.9-1.2,0.9C24.5,11.5,24.1,11.3,24.2,11.2z M24.7,13.5
		c1,0,1.9,0.9,1.9,1.9c0,1-0.9,1.9-1.9,2c-1,0-1.8-0.8-1.8-1.9C22.9,14.3,23.6,13.5,24.7,13.5z M21.6,26.5c0.3,0.2,0.5,0.4,0.3,0.9
		c-0.2-0.3-0.4-0.5-0.5-0.7c-0.2-0.1-0.3-0.3-0.5-0.3c-0.3,0.2-0.6,0.7-0.8,0.3c-0.2-0.3,0.4-0.5,0.6-0.7c0-0.1,0-0.1,0-0.1
		c0,0-0.1-0.1,0-0.1c-0.3-0.1-0.3-0.5-0.7-0.5c-0.2,0-0.5,0.1-0.3-0.1c0.1-0.3-0.3-0.6,0.2-0.7c0,0,0.1,0,0.1,0c0,0,0,0.1,0,0.1
		c0.2,0,0.4,0,0.5,0c0,0,0,0,0,0c0,0,0,0,0,0c0.1-0.4,0.1-0.8-0.3-1.1c-0.3-0.2-0.6-0.5-0.6-0.9c0.3-0.1,0.4,0,0.5,0.2
		c0.6,0.7,1.2,1.4,2-0.1c0,0.9-0.7,1-0.7,1.6c0.1,0.2,0.3,0.4,0.4,0.6c0.1,0.1,0.1,0.1,0.2,0.2c0.2,0,0.6-0.4,0.4,0.2
		c-0.1,0.2,0.2,0.4,0.2,0.6c0.3,0.2,0.6,0.5,0.6,0.9c-0.5-0.1-0.6-0.4-0.8-0.7c-0.1-0.1-0.2-0.2-0.4-0.4l-0.1,0l-0.1,0
		c-0.1,0.1-0.3,0.2-0.4,0.4C21.4,26.1,21.5,26.3,21.6,26.5z"/>
	<path class="st5" d="M42.5,12.2c0-0.2-0.1-0.5-0.1-0.7c-0.7-3.6-2.8-6-5.9-7.7h0c1,1.4,2.1,2.8,2.6,4.5c0,0,0,0,0,0c0,0,0,0,0,0
		c0.4,0.4,0.4,0.8,0.4,1.3c0,0,0,0,0,0c0.2,0.6,0.6,1.1,0.2,1.7c0,0,0,0,0,0c0.2,0.5,0.8,0.6,0.9,1.1c-0.4,0.3-0.4-0.2-0.6-0.2
		c0,0,0,0.1,0,0.1c0,1.8,0,3.6-0.8,5.3c0,0,0,0,0,0c-0.3,1.3-0.9,2.5-1.6,3.6c-0.6,0.9-1.1,1.8-2,2.3c0,0.3,0,0.7-0.1,1
		c-0.2,0.5-0.5,0.8-0.9,0.1c0,0,0,0,0,0c-3.5,2.8-7.5,4.2-12.1,3.8c-1-0.1-1.9-0.4-2.8-0.4l0,0c0.3,0.4,0.7,0.6,1.1,0.8
		c5.3,3,10.8,3.4,16.5,0.9c3.2-1.4,5.6-3.6,7.1-6.8c0.8-1.7,1-3.5,0-5.3C43.3,15.9,42.4,14.3,42.5,12.2z M43.2,20.7
		c-0.3,0.2-0.6,0.2-0.9,0c-0.2-0.2-0.4-0.4-0.6-0.6c-0.3-0.7,0.4-1,0.8-1.1c0.6,0,0.2,0.4,0.1,0.7c0,0,0,0,0,0c0,0,0,0,0,0
		c0.2,0.1,0.4,0.3,0.6,0.4C43.4,20.3,43.4,20.5,43.2,20.7z"/>
	<path class="st6" d="M5.7,11.4c2.6,0.9,5.1,0.6,7.4-0.9c1.7-1.1,3.2-2.3,3.9-4.2c-2.8-1.1-5.7-1.3-8.7-0.7C6.1,6,4.1,6.9,2.7,8.8
		C3.2,10.2,4.4,10.9,5.7,11.4z"/>
	<path class="st7" d="M15.7,14.6c0.1-0.2,0.1-0.5,0.1-0.7c0.2-2.2,0.5-4.4,1.9-6.3c0.5-0.7,0.3-1-0.4-1.2c-0.1,0-0.2-0.1-0.3-0.1
		l0,0c-0.7,2-2.2,3.2-3.9,4.2c-2.3,1.5-4.8,1.8-7.4,0.9c-1.3-0.4-2.5-1.2-2.9-2.6c-1.2,1.7-1,2.7,0.7,3.7C4,12.8,4.6,13,5.1,13.2
		C8,14.3,11,14.9,14,15.6C15.3,16,15.4,15.9,15.7,14.6z"/>
	<path class="st8" d="M45.3,13.4c0.5,0.2,0.7-0.2,0.9-0.5c1.4-2,2.8-4,4.3-6c0.1-0.2,0.3-0.3,0.5-0.3c0.2-0.3,0.6-0.5,0.3-0.8
		C51,5.4,49.1,5.6,48.8,6c-1.6,2.1-3.1,4.2-4.7,6.3C44.1,13.2,44.8,13.2,45.3,13.4z"/>
	<path class="st9" d="M56.8,8.1c-0.3-0.3-0.5-0.6-0.9-0.7c-0.2,0.3-0.5,0.6-0.9,0.5c-1.4,2.2-2.7,4.5-4.2,6.7c1.2-0.3,2.2-0.6,3.3-1
		c0.2-0.1,0.4-0.1,0.5-0.3c0.6-1.6,1.6-3,2.4-4.5C57,8.5,57,8.3,56.8,8.1z"/>
	<path class="st9" d="M54.3,7.2c0.1-0.2,0.6-0.6-0.1-0.7c-0.3,1-1.3,1.6-1.9,2.5c-0.5,0.8-1.1,1.5-1.7,2.3c-0.6,0.7-1.2,1.3-2.2,1.2
		c-0.7,1-1.3,2-2,3.1c0.2,0.1,0.2,0.1,0.2,0.1c1.8-0.2,3.3-0.8,4.2-2.6C51.8,11,53.1,9.2,54.3,7.2z"/>
	<path class="st9" d="M51,6.6c-0.2,0-0.4,0.1-0.5,0.3c-1.4,2-2.9,4-4.3,6c-0.2,0.3-0.4,0.8-0.9,0.5c-0.5-0.2-1.2-0.2-1.2-1
		c-0.6,0.7-0.7,1.9-0.1,3c0.2,0.4,0.4,0.6,0.9,0.6c0.5,0,0.7-0.1,1-0.5c0.6-1.1,1.3-2.2,1.9-3.3C48.8,10.2,50.1,8.5,51,6.6z"/>
	<path class="st10" d="M50.6,11.3c0.6-0.7,1.2-1.5,1.7-2.3c0.6-0.9,1.5-1.5,1.9-2.5c-0.4-0.2-0.8-0.3-1.2-0.5
		c-0.4-0.2-0.7-0.1-0.9,0.3c-1.2,2-2.5,4.1-3.7,6.1C49.4,12.6,50,12,50.6,11.3z"/>
	<path class="st11" d="M43.1,8.4c0.2,0.6,0.1,1.6,0.6,1.7c0.6,0.1,0.9-0.8,1.2-1.3c0.7-0.9,1.3-1.9,1.9-2.8c0.1-0.1,0.2-0.3,0-0.4
		c-1.5-0.1-2.5,0.5-3.2,1.9C43.6,7.8,43.3,8.1,43.1,8.4z"/>
	<path class="st12" d="M46.9,6c-0.6,0.9-1.3,1.9-1.9,2.8c-0.4,0.5-0.7,1.4-1.2,1.3C43.1,10,43.3,9,43.1,8.4
		c-0.1,0.3-0.4,0.4-0.3,0.8c0.4,0.9,0.5,2,0.6,3c0.8-1.2,1.6-2.3,2.3-3.4c0.8-1.1,1.6-2.2,2.5-3.4c-0.5,0-1-0.1-1.4,0.1
		C47,5.7,46.9,5.9,46.9,6z"/>
	<path class="st13" d="M55.5,12.7c2-0.2,2.7-1.5,1.9-3.3C56.8,10.5,56.3,11.6,55.5,12.7z"/>
	<path class="st14" d="M41,4.7c0.1,0.4,0.1,0.8,0.4,1.1c0.4-0.8,0.8-1.5,1-2.3c0.1-0.3,0.2-0.7-0.3-0.9C41.7,3.4,41.7,4.2,41,4.7z"
		/>
	<path class="st15" d="M42.1,2.7c-1.3,0-1.5,0.4-1.1,2C41.7,4.2,41.7,3.4,42.1,2.7z"/>
	<path class="st16" d="M44.3,4.2c0-0.2-0.1-0.6-0.4-0.6c-0.3-0.1-0.4,0.3-0.5,0.5C43.2,4.4,43.1,4.6,43,5c0.4-0.1,0.6-0.2,0.8-0.2
		C44.1,4.7,44.3,4.6,44.3,4.2z"/>
	<path class="st17" d="M43.2,7.1c-0.1-0.6-0.7-0.1-1-0.4c-0.1,0-0.1,0-0.2,0c0.2,0.4,0.2,0.9,0.7,1.1l0,0
		C42.8,7.5,42.9,7.3,43.2,7.1z"/>
	<path class="st18" d="M43.2,7.1c-0.3,0.1-0.4,0.4-0.4,0.7C43,7.7,43.2,7.4,43.2,7.1c0.4-0.2,0.4-0.6,0.6-0.9
		c-0.5,0.2-1.1,0.2-1.5,0.5C42.5,7,43.1,6.5,43.2,7.1z"/>
	<path class="st18" d="M42.1,6.8c-0.4,0.1-0.5,0.3-0.2,0.5c0.3,0.2,0.1,1,0.8,0.7c0,0,0-0.1,0.1-0.2C42.3,7.7,42.2,7.2,42.1,6.8z"/>
	<path class="st19" d="M55.8,7.3c-0.8-0.6-0.7,0.2-0.9,0.5C55.4,7.9,55.6,7.7,55.8,7.3z"/>
	<path class="st20" d="M24.7,17.3c1,0,1.9-0.9,1.9-2c0-1.1-0.8-1.9-1.9-1.9c-1,0-1.8,0.9-1.8,2C22.9,16.5,23.7,17.3,24.7,17.3z
		 M24.2,14.2c0.3,0,0.5,0.2,0.5,0.4c0,0.3-0.2,0.5-0.4,0.5c-0.2,0-0.4-0.1-0.4-0.4C23.8,14.4,24,14.3,24.2,14.2z"/>
	<path class="st21" d="M34.7,17.3c0.4-0.4,0.8-0.5,1.3-0.4c0.2-0.2,0.4-0.4,0.5-0.7c0.4-0.8,0.2-1.8-0.5-2.4
		c-0.7-0.6-1.4-0.6-2.1-0.1c-0.7,0.5-1,1.4-0.8,2.2C33.4,16.7,34,17.1,34.7,17.3z M34.5,14.2c0.3,0,0.5,0.2,0.5,0.6
		c0,0.3-0.2,0.4-0.5,0.4c-0.3,0-0.5-0.2-0.5-0.5C34,14.3,34.2,14.2,34.5,14.2z"/>
	<path class="st20" d="M33.2,22.6c-0.3,0.1-0.5,0.3-0.8,0c-1-1.1-1.7-1.1-2.6,0c-0.5,0.6-1.1,0.8-1.8,0.4c-0.4-0.2-0.9-0.2-1.3,0
		c-0.7,0.3-0.9,1-0.4,1.7c0.3-0.6,0.4-1.5,1.3-1.1c1.3,0.6,2.2,0.3,3-0.7c0.3-0.4,0.9-0.6,1.2,0.1c0.3,0.8,0.8,0.8,1.5,0.5
		c0.3-0.2,0.8-0.4,1.1-0.1c0.4,0.3,0.1,0.7,0.1,1.1c0,0,0,0,0,0c0.4,0.7,0.7,0.4,0.9-0.1c0.1-0.3,0.1-0.6,0.1-1
		C34.9,22.5,34.4,22.3,33.2,22.6z"/>
	<path class="st22" d="M29.7,20.3c0.2,0,0.4,0,0.5,0c0.8-0.1,1.5-1.2,1.3-2c-0.2-0.8-0.8-0.9-1.5-0.6c-0.3,0.1-0.5-0.1-0.7-0.1
		c-0.4,0-0.8-0.2-1.1,0.2c-0.3,0.4-0.3,0.8-0.1,1.2C28.4,19.9,29,20.3,29.7,20.3z M29,18.1c0.2,0,0.3,0.2,0.4,0.3
		c0,0.2-0.2,0.3-0.4,0.3c-0.2,0-0.3-0.1-0.3-0.4C28.7,18.1,28.8,18.1,29,18.1z"/>
	<path class="st23" d="M39,10.1L39,10.1C39,10.1,39,10.1,39,10.1c-0.2,0-0.3,0-0.4-0.1h0c-0.1-0.1-0.2-0.2-0.2-0.2l0,0
		c-0.2-0.2-0.3-0.4-0.5-0.5c-0.1-0.1-0.2-0.2-0.3-0.3c-0.3-0.4-0.6-1-1-0.8c-0.3,0.2,0.4,0.6,0.5,1c0.3,0.2,0.6,0.4,0.6,0.7
		c0.3,0.1,0.6,0.2,0.7,0.6c0,0,0,0,0,0c0,0,0,0,0,0c0.1,0.1,0.1,0.3,0.2,0.4c0.5,0.3,0.8,0.7,1.1,1.1c0.1,0.1,0.1,0.1,0.2,0.2
		c0,0,0,0,0,0c0,0,0,0,0,0c0,0,0,0,0,0c0.2,0.1,0.3,0.5,0.6,0.2c-0.1-0.5-0.7-0.7-0.9-1.1c0,0,0,0,0,0c0,0,0,0,0,0
		C39.3,11,38.8,10.7,39,10.1z"/>
	<path class="st24" d="M34.7,17.3c-0.2,0.7,0,1.2,0.7,1.4c0.5,0.1,0.9-0.2,1-0.7c0.1-0.4-0.2-0.7-0.4-1.1h0
		C35.5,16.9,35.1,16.9,34.7,17.3z M35.5,17.8c-0.1,0-0.2-0.1-0.2-0.2c0-0.1,0.1-0.2,0.2-0.2c0.1,0,0.2,0.1,0.2,0.3
		C35.6,17.7,35.6,17.8,35.5,17.8z"/>
	<path class="st25" d="M21,24.4L21,24.4C21,24.3,20.8,24.1,21,24c0.2-0.1,0.2,0.2,0.4,0.3c0-0.5,0.8-0.7,0.7-1.6
		c-0.8,1.5-1.4,0.8-2,0.1c-0.1-0.1-0.2-0.3-0.5-0.2c0.1,0.4,0.3,0.7,0.6,0.9c0.4,0.3,0.4,0.7,0.3,1.1C20.7,24.5,20.9,24.5,21,24.4
		L21,24.4z"/>
	<path class="st26" d="M38.4,9.1c0,0.2,0,0.4-0.1,0.6l0,0l0,0c0.1,0.1,0.2,0.2,0.2,0.2h0c0,0,0,0,0,0c0.3,0,0.4-0.4,0.7-0.4
		c0.1,0,0.2,0,0.2,0c0,0,0,0,0,0c0,0,0,0,0,0c0-0.5-0.1-0.9-0.4-1.3c0,0,0,0,0,0C38.7,8.5,38.6,8.8,38.4,9.1z"/>
	<path class="st27" d="M24.8,11.6c0.6-0.1,1-0.3,1.2-0.9c0.1-0.2-0.1-0.4-0.2-0.3c-0.5,0.3-1.1,0.5-1.5,0.9
		C24.1,11.3,24.5,11.5,24.8,11.6z"/>
	<path class="st28" d="M39.9,12.1c-0.1-0.1-0.1-0.1-0.2-0.2c-0.1,1.2,0.1,2.4-0.2,3.6c-0.2,0.7-0.5,1.3-0.4,2.1c0,0,0,0,0,0
		c0.8-1.7,0.8-3.5,0.8-5.3C39.9,12.2,39.9,12.2,39.9,12.1C39.9,12.1,39.9,12.1,39.9,12.1z"/>
	<path class="st29" d="M35.9,20.2c-0.3,0-0.4,0.2-0.4,0.5c0,0.3,0.2,0.4,0.5,0.4c0.3,0,0.4-0.2,0.4-0.4
		C36.3,20.4,36.2,20.2,35.9,20.2z"/>
	<path class="st30" d="M20.3,25c-0.6,0.3-0.3-0.2-0.4-0.4c0,0,0-0.1,0-0.1c0,0-0.1,0-0.1,0c-0.5,0.1,0,0.5-0.2,0.7
		c-0.1,0.2,0.2,0.2,0.3,0.1c0.3,0,0.4,0.4,0.7,0.5c0-0.1,0-0.2,0-0.2C20.6,25.3,20.5,25.1,20.3,25z"/>
	<path class="st31" d="M35.7,6.4c0.2-0.3,0.2-0.6-0.1-1c-0.3,0.4-0.4,0.6-0.2,1C35.4,6.5,35.6,6.5,35.7,6.4z"/>
	<path class="st32" d="M38.3,10.5C38.3,10.5,38.3,10.5,38.3,10.5c-0.1-0.4-0.4-0.4-0.7-0.6c0,0.1,0,0.1,0,0.2c0,0.2,0,0.4,0,0.6
		c0.1,0,0.1,0.1,0.2,0.1C38,10.8,38.2,10.6,38.3,10.5z"/>
	<path class="st33" d="M37.6,10.1c0-0.1,0-0.1,0-0.2c0-0.4-0.3-0.6-0.6-0.7c-0.2,0.5-0.2,0.8,0.4,1C37.5,10.1,37.6,10.1,37.6,10.1z"
		/>
	<path class="st34" d="M17,20.5c-0.1,0-0.3,0-0.3,0.2c0,0.2,0.2,0.4,0.4,0.4c0.2,0,0.3,0,0.3-0.2C17.4,20.6,17.2,20.5,17,20.5z"/>
	<path class="st35" d="M36.4,6.4c0.3,0,0.4-0.2,0.4-0.4c0-0.2,0-0.3-0.2-0.3c-0.2,0-0.4,0.2-0.4,0.5C36.2,6.3,36.3,6.4,36.4,6.4z"/>
	<path class="st36" d="M17.7,19.7c-0.1,0-0.2,0.1-0.2,0.2c0,0.2,0.1,0.4,0.3,0.4c0.2,0,0.4,0,0.4-0.1C18.2,19.9,18,19.7,17.7,19.7z"
		/>
	<path class="st37" d="M20.6,26.1c-0.3,0.2-0.9,0.4-0.6,0.7c0.3,0.4,0.6-0.2,0.8-0.3c0-0.1,0-0.1,0-0.2
		C20.8,26.2,20.7,26.1,20.6,26.1z"/>
	<path class="st38" d="M23.1,26.7c0-0.5-0.3-0.7-0.6-0.9c-0.1,0.1-0.1,0.1-0.2,0.2C22.5,26.2,22.6,26.6,23.1,26.7z"/>
	<path class="st27" d="M22,25.6c0.1,0.1,0.2,0.2,0.4,0.4c0.1-0.1,0.1-0.1,0.2-0.2c0-0.2-0.3-0.3-0.2-0.6c0.2-0.6-0.2-0.2-0.4-0.2
		C22,25.2,22.3,25.4,22,25.6z"/>
	<path class="st39" d="M38.3,10.5C38.3,10.5,38.3,10.5,38.3,10.5c-0.2,0.2-0.3,0.4-0.6,0.3c0.3,0.1-0.6,0.7,0.2,0.6
		c0.1-0.2,0.2-0.3,0.4-0.3c0.1-0.1,0.1-0.1,0.2-0.2C38.5,10.7,38.4,10.6,38.3,10.5z"/>
	<path class="st40" d="M30.1,26.6c0-0.3,0-0.7-0.3-0.9c0,0-0.2,0.1-0.2,0.1C29.6,26.2,29.7,26.5,30.1,26.6z"/>
	<path class="st41" d="M21.9,25.6L21.9,25.6c0.4-0.2,0.1-0.4,0.1-0.6c-0.1-0.1-0.1-0.1-0.2-0.2c-0.1-0.2-0.3-0.4-0.4-0.6
		c-0.2-0.1-0.2-0.4-0.4-0.3c-0.2,0.1,0,0.3,0.1,0.4v0c0.2,0.2,0.4,0.4,0.6,0.6c0,0.1,0,0.3,0,0.4c-0.3,0.2-0.6,0.5-0.9,0.2
		c0,0.1,0,0.2,0,0.2c0,0.1,0,0.1,0,0.1c0.2,0,0.4,0,0.5,0c0.1,0,0.1,0,0.2,0C21.5,25.8,21.7,25.7,21.9,25.6L21.9,25.6z"/>
	<path class="st42" d="M37,10.6c-0.3,0.2-0.5,0.4-0.4,0.8c0.4-0.1,0.5-0.3,0.6-0.6C37.2,10.8,37.1,10.7,37,10.6z"/>
	<path class="st43" d="M21.9,27.4c0.2-0.5-0.1-0.7-0.3-0.9c-0.1,0.1-0.1,0.1-0.2,0.2C21.6,26.9,21.7,27.1,21.9,27.4z"/>
	<path class="st44" d="M20.3,25c0.1-0.1,0.1-0.2,0.2-0.4c-0.2,0-0.4,0-0.5,0C20,24.8,19.7,25.3,20.3,25z"/>
	<path class="st45" d="M37.6,10.1c-0.1,0-0.1,0-0.2,0c0,0.3-0.3,0.3-0.4,0.5c0.1,0.1,0.1,0.1,0.2,0.2c0.1-0.1,0.2-0.1,0.4-0.2
		C37.6,10.5,37.6,10.3,37.6,10.1z"/>
	<path class="st46" d="M20.8,26.3C20.8,26.3,20.8,26.3,20.8,26.3c0,0.1,0,0.1,0,0.2c0.2,0,0.4,0.2,0.5,0.3c0.1-0.1,0.1-0.1,0.2-0.2
		c-0.1-0.2-0.1-0.4-0.2-0.6c-0.1,0-0.1,0-0.2,0C21.2,26.2,21.1,26.3,20.8,26.3z"/>
	<path class="st47" d="M31.4,24.5c-0.1-0.3-0.2-0.4-0.6-0.4C30.9,24.4,31.1,24.6,31.4,24.5z"/>
	<path class="st48" d="M38,11.4c0.1,0,0.3,0.2,0.4,0.1c0.2-0.1-0.1-0.3,0-0.5C38.2,11.1,38.1,11.2,38,11.4z"/>
	<path class="st20" d="M20.8,26.3c0.2,0,0.4-0.1,0.4-0.4c-0.2,0-0.4,0-0.5,0c0,0,0,0.1,0,0.1C20.7,26.1,20.8,26.2,20.8,26.3
		C20.8,26.3,20.8,26.3,20.8,26.3z"/>
	<path class="st49" d="M38.3,9.7L38.3,9.7c0-0.2,0-0.4,0.1-0.6c-0.2,0-0.4,0-0.6,0.1C38,9.4,38.1,9.5,38.3,9.7z"/>
	<path class="st50" d="M39.3,9.5c0,0.3-0.1,0.4-0.3,0.6v0c-0.1,0.6,0.3,0.9,0.7,1.1c0,0,0,0,0,0c0.4-0.6,0-1.1-0.2-1.7c0,0,0,0,0,0
		C39.4,9.5,39.3,9.5,39.3,9.5z"/>
	<path class="st51" d="M42.6,19.7C42.6,19.7,42.6,19.7,42.6,19.7c0.1-0.3,0.5-0.7-0.1-0.7c-0.4,0-1,0.3-0.8,1.1
		C42.1,20.2,42.3,20,42.6,19.7z"/>
	<path class="st52" d="M42.3,20.7c0.3,0.2,0.6,0.2,0.9,0c0.2-0.2,0.3-0.4,0-0.6C42.8,20.2,42.3,20.1,42.3,20.7z"/>
	<path class="st53" d="M43.2,20.1c-0.2-0.1-0.4-0.3-0.6-0.4c0,0,0,0,0,0c-0.3,0.2-0.5,0.5-0.9,0.4c0.2,0.2,0.4,0.4,0.6,0.6
		C42.3,20.1,42.8,20.2,43.2,20.1z"/>
	<path class="st54" d="M24.3,15.1c0.3,0,0.5-0.2,0.4-0.5c0-0.3-0.2-0.4-0.5-0.4c-0.3,0.1-0.4,0.2-0.4,0.5C23.9,15,24,15.1,24.3,15.1
		z"/>
	<path class="st55" d="M34.5,15.2c0.3,0,0.5-0.1,0.5-0.4c0-0.3-0.2-0.5-0.5-0.6c-0.3,0-0.5,0.2-0.5,0.4C34,14.9,34.2,15.2,34.5,15.2
		z"/>
	<path class="st56" d="M29,18.7c0.2,0,0.3,0,0.4-0.3c-0.1-0.1-0.1-0.3-0.4-0.3c-0.2,0-0.3,0-0.3,0.2C28.7,18.5,28.8,18.7,29,18.7z"
		/>
	<path class="st57" d="M39,10.1C39,10.1,39,10.1,39,10.1c0.2-0.1,0.3-0.3,0.3-0.6C39,9.6,38.9,10,38.5,10c0,0,0,0,0,0
		C38.6,10.1,38.8,10.1,39,10.1z"/>
	<path class="st58" d="M35.5,17.3c-0.1,0-0.2,0.1-0.2,0.2c0,0.1,0.1,0.2,0.2,0.2c0.1,0,0.2-0.1,0.2-0.2
		C35.7,17.4,35.6,17.3,35.5,17.3z"/>
	<path class="st59" d="M20.3,25c0.2,0.1,0.3,0.3,0.4,0.6c0.4,0.3,0.6,0,0.9-0.2c0-0.1,0-0.3,0-0.4c-0.2-0.2-0.4-0.4-0.6-0.6l0,0
		c-0.2,0.1-0.4,0.1-0.6,0.2c0,0,0,0,0,0c0,0,0,0,0,0C20.4,24.7,20.4,24.9,20.3,25z"/>
</g>
</svg>
